<?xml version="1.0" encoding="UTF-8"?>
<svg version="1.1" viewBox="0 0 1424 1600" width="1280" height="1280" xmlns="http://www.w3.org/2000/svg">
<path transform="translate(176 170)" d="m0 0c0.83 0.02 1.67 0.04 2.53 0.05l8.19 0.21c0.93 0.03 1.87 0.05 2.83 0.07 15.5 0.41 30.8 1.16 46.2 2.62 1.76 0.17 1.76 0.17 3.55 0.34 13.1 1.25 26.2 2.69 39.2 4.28 1.02 0.13 2.04 0.25 3.1 0.38 0.93 0.11 1.86 0.23 2.82 0.35 0.81 0.1 1.63 0.2 2.47 0.31 1.86 0.34 1.86 0.34 2.86 1.34 2.5 0.48 4.99 0.91 7.51 1.3 0.77 0.13 1.53 0.25 2.32 0.38 3.29 0.54 6.57 1.06 9.86 1.58 26.2 4.21 26.2 4.21 31.3 6.74 1.8 0.36 3.62 0.69 5.43 1 2.99 0.51 5.69 1.04 8.57 2 1.33 0.34 2.66 0.68 4 1 2.39 0.58 4.66 1.22 7 2 3.2 0.86 6.42 1.7 9.63 2.54 5.15 1.35 5.15 1.35 7.37 2.46 2.29 0.51 4.59 0.96 6.9 1.4 2.1 0.6 2.1 0.6 4.1 2.6 1.99 0.34 3.99 0.67 6 1 3.03 0.91 6.01 1.96 9 3 1.68 0.56 3.37 1.13 5.06 1.69 1.97 0.65 1.97 0.65 3.94 1.31v2c1.29-0.09 1.29-0.09 2.62-0.19 3.88 0.22 6 1.32 9.38 3.19 3.9 1.7 7.89 2.87 12 4v2h5v2c1.48-0.5 1.48-0.5 3-1 2.52 0.93 2.52 0.93 5.37 2.31 3.97 1.92 3.97 1.92 8.03 3.63 3.99 1.63 7.78 3.67 11.6 5.67 2.87 1.47 4.72 2.39 8 2.39v2c0.68 0.08 1.36 0.16 2.06 0.25 3.07 0.78 5.41 2.09 8.11 3.71 3.78 2.16 7.88 3.66 11.9 5.29 4.85 2.08 9.42 4.65 14 7.19 1.43 0.78 1.43 0.78 2.89 1.58 9.29 5.11 18.5 10.4 27.7 15.7 2.16 1.23 4.34 2.41 6.53 3.59 6.5 3.59 12.6 7.76 18.8 11.8 1.3 0.86 2.61 1.72 3.92 2.58 29.4 19.4 57.5 40 84.3 62.9 1.7 1.44 3.4 2.88 5.11 4.31 11.6 9.86 22.8 20.2 33.5 31.1 2.57 2.54 5.26 4.83 8.1 7.07 5.01-1.47 7.71-4.43 11.2-8.13 1.9-2.01 3.82-3.95 5.82-5.87h2v-2c1.32-1.34 1.32-1.34 3.25-2.94 3.65-3.11 7.22-6.3 10.8-9.56 7.08-6.52 14.3-12.8 21.8-18.9 2.37-1.92 4.71-3.87 7.04-5.83 10.4-8.71 21.2-16.9 32.2-24.8 0.71-0.51 1.42-1.03 2.15-1.55 10.9-7.84 22-15.3 33.2-22.7 2.5-1.65 4.99-3.32 7.48-4.98 21.8-14.5 44.7-27 68.1-38.8 1.75-0.88 1.75-0.88 3.54-1.78 59.7-29.8 124-51.1 189-64.2 1.23-0.26 2.47-0.51 3.75-0.78 41.9-8.59 85.3-13.4 128-13.3 1.68 0 3.35 0.01 5.02 0.01 4.05 0.01 8.09 0.02 12.1 0.03 0.02 22.3 0.04 44.6 0.05 66.8 0 10.4 0.01 20.7 0.02 31 0.01 9.02 0.02 18 0.02 27 0 4.78 0 9.55 0.01 14.3 0.01 4.49 0.01 8.98 0.01 13.5v4.96c0.01 2.24 0.01 4.49 0.01 6.74v3.82c-0.12 2.79-0.12 2.79-1.12 3.79-1.85 0.17-3.7 0.28-5.56 0.36-1.81 0.09-1.81 0.09-3.67 0.18-0.99 0.05-0.99 0.05-2 0.1-85.1 4.4-167 26.3-286 85.4-1 0.6-1.99 1.2-3.01 1.82-13.3 8.03-26.4 16.2-39 25.2-0.73 0.51-1.45 1.02-2.19 1.55-10.2 7.21-20.1 14.6-29.8 22.4-0.66 0.52-1.31 1.04-1.98 1.58-7.77 6.2-15.4 12.5-22.7 19.2-2 1.85-4.03 3.65-6.1 5.43-5.91 5.14-11.6 10.5-17.3 15.9-1.31 1.24-2.62 2.46-3.93 3.69-1.86 1.73-3.7 3.48-5.53 5.23-0.57 0.53-1.14 1.05-1.73 1.59-1.76 1.64-1.76 1.64-3.77 4.35 0.32 3.76 1.64 6.51 3.51 9.75 0.79 1.36 0.79 1.36 1.58 2.75 0.57 0.97 1.14 1.94 1.72 2.94 1.2 2.09 2.39 4.18 3.59 6.28 0.91 1.58 0.91 1.58 1.84 3.2 19.2 33.7 36.2 68.7 49.8 105 3.92-3.82 7.5-7.84 11.1-12 9.04-10.5 18.4-20.6 28.2-30.4 0.74-0.75 1.48-1.49 2.25-2.27 4.67-4.65 9.49-9.05 14.5-13.4 1.15-1.02 2.31-2.05 3.46-3.07 9.18-8.1 18.7-15.6 28.5-22.9 0.72-0.54 1.45-1.08 2.19-1.64 30.8-22.9 65.2-42.9 101-57.4 1.5-0.61 1.5-0.61 3.03-1.24 28.5-11.5 57.7-20 88-25.8 1.42-0.28 1.42-0.28 2.87-0.57 24.9-4.9 50.7-8.04 76.1-8.43 0.8-0.02 1.61-0.03 2.44-0.05 0.8-0.01 1.6-0.02 2.42-0.03 0.72-0.01 1.44-0.02 2.19-0.03 1.95 0.11 1.95 0.11 4.95 1.11v154c-3.6 0.9-6.92 1.37-10.6 1.76-1.35 0.15-2.69 0.3-4.03 0.44-0.7 0.08-1.41 0.16-2.13 0.24-23.6 2.66-46.7 7.06-69.2 14.6-0.79 0.25-1.58 0.51-2.38 0.77-38.8 12.6-76.6 32.4-108 58.8-1.91 1.6-3.82 3.2-5.74 4.79-7.45 6.17-14.5 12.6-21.3 19.5-1.59 1.6-3.19 3.18-4.79 4.77-6.46 6.45-12.4 13.2-18 20.3-1.03 1.24-2.06 2.48-3.09 3.72-7.66 9.33-14.4 19.1-20.9 29.3-0.41 0.62-0.81 1.25-1.23 1.89-7.38 11.5-13.1 23.7-18.8 36.1-0.43 0.92-0.86 1.85-1.31 2.8-14.8 31.8-24.1 65.4-28.7 100-0.12 0.87-0.24 1.74-0.36 2.64-3.82 29.5-3.33 61 1.36 90.4 0.18 1.18 0.37 2.36 0.56 3.58 1.8 11 3.77 22 6.52 32.8 0.19 0.73 0.37 1.47 0.56 2.22 0.45 1.79 0.9 3.57 1.36 5.36-16.7 0.17-33.3 0.34-50 0.5-1.24 0.01-2.47 0.02-3.74 0.04-32.7 0.31-65.4 0.56-98.1 0.52h-2.32c-8.96-0.01-17.9-0.03-26.9-0.06 0.13-0.92 0.26-1.84 0.4-2.79 4.49-31.3 7.77-62.6 8.6-94.2 0.02-0.83 0.04-1.66 0.07-2.51 1.66-67.7-9.73-136-30.1-200-0.47-1.48-0.47-1.48-0.94-2.99-8.62-27.5-20.1-53.8-32.1-80-2.51 3.09-4.15 6.2-5.79 9.82-0.53 1.16-1.05 2.32-1.59 3.52-0.56 1.26-1.13 2.52-1.69 3.78-0.29 0.65-0.57 1.3-0.87 1.96-35.2 79.1-53.6 165-46.4 355 0.35 2.63 0.39 5.11 0.37 7.76-15.8 0.13-31.7 0.26-47.5 0.39-7.37 0.06-14.7 0.12-22.1 0.18-35.8 0.3-71.6 0.51-107 0.43h-1c-0.99-0.33-1.98-0.66-3-1 0.3-0.99 0.6-1.97 0.91-2.99 23.6-79.3 12.9-166-21.5-240-1.27-2.76-2.51-5.53-3.75-8.3-11.3-25.1-28.2-47.4-46-68.2-0.48-0.56-0.96-1.13-1.45-1.71-2.43-2.81-4.92-5.48-7.59-8.07-2.64-2.72-2.64-2.72-2.64-4.72-0.56-0.23-1.12-0.45-1.69-0.69-2.98-1.69-5.03-3.78-7.31-6.31v-2c-0.64-0.27-1.28-0.54-1.94-0.81-2.06-1.19-2.06-1.19-3.06-4.19-0.71-0.23-1.41-0.45-2.13-0.69-3.79-1.73-5.65-4.31-8.23-7.53-1.62-2.04-1.62-2.04-4.64-2.78l-2-2c-1.66-1.35-3.33-2.68-5-4-0.75-0.62-1.49-1.24-2.25-1.88-3.15-2.43-6.43-4.59-9.77-6.75-1.98-1.37-1.98-1.37-3.98-3.37-1.33-0.69-2.66-1.35-4-2-2.68-1.53-4.83-2.82-7-5l-3-2c-0.66-0.46-1.31-0.93-1.99-1.4-3.73-2.6-7.21-4.84-11.5-6.35-3.5-1.25-3.5-1.25-4.5-3.25-1.65-0.71-3.33-1.37-5-2-2.03-0.98-4.06-1.98-6.07-3-1.02-0.52-2.04-1.03-3.1-1.56-1.62-0.83-3.25-1.65-4.87-2.47-6.18-3.05-12.4-5.93-19-7.97-1.67-0.66-3.34-1.33-5-2-2.11-0.78-4.22-1.55-6.33-2.32-1.67-0.68-1.67-0.68-2.67-1.68-2.77-0.54-5.55-0.97-8.34-1.4-2.66-0.6-2.66-0.6-5.66-2.6-2.15-0.6-2.15-0.6-4.53-1-0.88-0.17-1.75-0.33-2.65-0.5-0.91-0.17-1.82-0.33-2.76-0.5-1.8-0.33-3.6-0.66-5.4-1-0.8-0.15-1.6-0.29-2.42-0.44-2.31-0.58-4.14-1.47-6.24-2.56-7.05-1.62-14.2-2.27-21.4-2.66-2.59-0.34-2.59-0.34-4.59-1.37-2.65-1.28-4.64-1.13-7.57-1.03-5.81 0.09-11.7 0.15-17.4-0.94-2-2-2-2-2.25-4.64v-3.41-3.91c0-1.44 0.01-2.87 0.02-4.31v-4.53c0-4.1 0.01-8.2 0.02-12.3 0.01-4.28 0.02-8.56 0.02-12.8 0-8.11 0.02-16.2 0.04-24.3 0.02-9.23 0.03-18.5 0.04-27.7 0.03-19 0.06-38 0.11-57 3.24-1.63 6.8-1.15 10.4-1.13 0.85 0.01 1.7 0.01 2.57 0.01 21.6 0.18 43.3 1.5 64.5 5.62 3.19 0.61 6.38 1.19 9.57 1.77 2.48 0.45 4.97 0.9 7.45 1.35 1.21 0.22 2.41 0.44 3.65 0.67 1.13 0.2 2.25 0.41 3.41 0.62 1.01 0.19 2.03 0.37 3.07 0.56 2.44 0.53 2.44 0.53 4.44 1.53 1.33 0.34 2.68 0.65 4.02 0.94 1.19 0.26 1.19 0.26 2.4 0.52 0.83 0.18 1.66 0.36 2.51 0.54 1.64 0.35 3.27 0.71 4.9 1.06 0.73 0.16 1.46 0.31 2.2 0.47 1.97 0.47 1.97 0.47 4.97 1.47 1.56 0.46 3.12 0.92 4.68 1.37 3.09 0.93 6.12 1.9 9.13 3.07 3.47 1.34 6.99 2.43 10.6 3.5 5.69 1.72 11.1 3.77 16.6 6.06 1.58 0.63 3.16 1.25 4.75 1.87 6.46 2.59 12.8 5.37 19.2 8.13v2c0.6 0.12 1.2 0.24 1.82 0.37 0.8 0.16 1.6 0.33 2.43 0.5 1.18 0.25 1.18 0.25 2.39 0.5 2.32 0.62 4.25 1.48 6.36 2.63v2c1.27 0.31 2.55 0.62 3.87 0.94 2.23 0.54 4.07 1.03 6.13 2.06v2c1.11 0.31 2.22 0.62 3.37 0.94 3.63 1.06 3.63 1.06 5.63 2.06v2l7 2v2c0.84 0.25 1.69 0.49 2.56 0.75 7.13 2.59 13.2 7.05 19.4 11.2 1.09 0.73 1.09 0.73 2.2 1.48 15.8 10.6 31.5 21.5 45.9 34 2.84 2.45 5.75 4.8 8.68 7.14 4.45 3.62 8.5 7.49 12.5 11.6 1.67 1.82 1.67 1.82 3.78 2.75v2c0.52 0.2 1.05 0.41 1.6 0.62 3.44 1.98 5.95 4.68 8.71 7.5 0.58 0.59 1.16 1.18 1.76 1.79 3.5 3.57 6.89 7.2 10.1 11 1.89 2.18 3.84 4.29 5.8 6.4 5.28 5.69 10.3 11.5 15 17.7 1.58-2.37 2.53-4.12 3.52-6.72 0.29-0.75 0.58-1.51 0.89-2.28 0.31-0.83 0.63-1.65 0.96-2.5 5.12-13 10.8-25.8 16.6-38.5 0.57-1.26 0.57-1.26 1.15-2.55 4.77-10.5 9.98-20.7 15.4-30.8 1.54-2.88 3.07-5.76 4.6-8.64 5.33-9.97 10.6-19.9 17-29.2 2.23-3.14 2.23-3.14 2.56-6.82-1.28-3.38-3.92-5.75-6.38-8.31-0.55-0.58-1.09-1.16-1.66-1.76-1.56-1.65-3.14-3.29-4.71-4.93-0.69-0.71-1.37-1.43-2.08-2.16-3.36-3.44-6.91-6.61-10.6-9.75-3.61-3.18-7.12-6.46-10.6-9.74-2.95-2.74-5.94-5.41-9.05-7.98-0.88-0.78-1.77-1.56-2.68-2.37v-2c-0.55-0.07-1.1-0.14-1.66-0.21-3.25-1.1-5.4-3.22-7.91-5.48-6.4-5.61-13.2-10.6-20.1-15.6-0.79-0.56-1.57-1.13-2.37-1.71-0.7-0.5-1.4-1-2.12-1.52-1.78-1.37-3.29-2.86-4.87-4.45l-2-1c-2.15-1.07-3.32-2.32-5-4-1.34-0.67-2.67-1.34-4-2-1.91-1.15-3.81-2.31-5.69-3.5-0.98-0.61-1.95-1.22-2.95-1.84-2.36-1.66-2.36-1.66-3.36-3.66-1.33-0.66-2.66-1.31-4-1.94-2-1.06-2-1.06-4-3.06-2.83-2.04-2.83-2.04-5.57-3-2.43-1-2.43-1-4.43-3-1.65-0.71-3.32-1.38-5-2v-2c-0.95-0.29-1.9-0.58-2.88-0.88-3.12-1.12-3.12-1.12-5.12-3.12-2.94-2.53-5.17-3.47-9-4v-2c-1.14-0.45-2.27-0.91-3.44-1.38-3.56-1.62-3.56-1.62-4.56-3.62-2.03-0.49-4.05-0.98-6.08-1.43-2.35-0.7-3.29-1.79-4.92-3.57-3.1-1.2-3.1-1.2-6-2v-2c-1.04-0.31-1.04-0.31-2.09-0.62-1.35-0.41-1.35-0.41-2.73-0.82-0.89-0.27-1.78-0.53-2.7-0.81-1.84-0.55-3.67-1.14-5.48-1.75v-2c-1.24-0.39-2.48-0.78-3.75-1.19-6.56-2.18-13.1-4.72-19.2-7.81-1.27-0.49-2.54-0.97-3.82-1.44-8.06-3-8.06-3-11.2-4.56-2.65-1.1-5.29-2.1-8-3-1.79-0.6-3.57-1.23-5.32-1.94-8.03-3.17-16.4-5.49-24.7-7.9-0.85-0.25-1.7-0.5-2.58-0.76-0.76-0.22-1.51-0.44-2.3-0.67-2.17-0.74-4.1-1.7-6.14-2.73-1.66-0.38-3.33-0.71-5-1-2.55-0.44-4.63-0.81-6.93-2-3.58-1.73-7.5-1.9-11.4-2.44-2.67-0.56-2.67-0.56-4.67-2.56-2.6-0.57-5.14-1.03-7.75-1.44-1.55-0.25-3.1-0.51-4.65-0.77-0.77-0.13-1.55-0.26-2.35-0.4-5.45-0.95-10.8-2.21-16.2-3.39-9.94-2.1-19.9-3.78-30-5-0.93-0.16-1.85-0.33-2.8-0.5-3.39-0.53-6.72-0.79-10.1-1-3.43-0.21-6.78-0.46-10.2-0.98-4.56-0.61-9.1-0.92-13.7-1.2-1.88-0.13-3.76-0.25-5.64-0.38-2.95-0.19-5.9-0.38-8.84-0.56-2.86-0.18-5.72-0.37-8.58-0.56-0.88-0.06-1.77-0.11-2.68-0.16-0.82-0.06-1.64-0.12-2.48-0.17-1.08-0.07-1.08-0.07-2.19-0.14-1.78-0.35-1.78-0.35-3.78-2.35-0.25-2.9-0.25-2.9-0.25-6.7v-2.1c0-2.35 0.01-4.69 0.02-7.03v-5.03c0-4.56 0.01-9.11 0.02-13.7 0.01-4.76 0.02-9.52 0.02-14.3 0-9.02 0.02-18 0.04-27 0.02-10.3 0.03-20.5 0.04-30.8 0.03-21.1 0.06-42.2 0.11-63.4 3.21-1.61 6.69-1.04 10.2-0.95z" fill="#FBFCFE"/>
<path transform="translate(714 -.312)" d="m0 0c1.81 0.03 3.61 0.05 5.42 0.07 4.36 0.05 8.72 0.14 13.1 0.24v2c1.25 0.08 1.25 0.08 2.52 0.15 1.09 0.08 2.17 0.15 3.29 0.23 1.08 0.07 2.16 0.14 3.27 0.21 2.92 0.41 2.92 0.41 5.92 2.41 2.26 0.88 4.54 1.73 6.81 2.57 20.5 7.9 39.7 23.9 51.2 42.4 0.66 1.05 1.31 2.1 1.99 3.18 7.75 12.7 12.5 26.1 15 40.8 0.18 1.08 0.37 2.15 0.56 3.26 3.39 28.8-3.49 59.2-21.6 82.3-1.3 1.49-2.61 2.97-3.94 4.43-0.7 0.83-1.39 1.65-2.11 2.5-5.4 6.28-11.3 11.5-17.9 16.5-0.76 0.61-1.51 1.21-2.29 1.84-18.7 14.2-41.6 18.3-64.5 18.4-1.22 0.01-2.43 0.02-3.68 0.04h-3.53c-1.58 0.01-1.58 0.01-3.19 0.02-2.82-0.25-4.36-0.87-6.79-2.25-1.97-0.39-3.95-0.72-5.94-1-4-0.56-7.35-1.4-11.1-3-4.6-1.65-9.16-3.22-14-4v-2c-0.72-0.08-1.44-0.16-2.19-0.25-3.39-0.9-5.15-2.5-7.81-4.75-0.62-0.3-1.23-0.6-1.87-0.92-12.9-6.54-24.4-20.2-32.1-32.1-0.89-1.33-0.89-1.33-1.8-2.69-8.24-13.1-12.8-28.1-15.2-43.3-0.13-0.74-0.26-1.48-0.39-2.24-3.7-23.7 2.79-48.2 14.4-68.8 0.82-1.46 0.82-1.46 1.65-2.95 13-21.7 33.7-39.5 57.8-47.2 1.97-0.65 3.92-1.36 5.86-2.1 11.1-4.06 21.4-4.33 33.2-4.04z" fill="#FBFCFE"/>
<path transform="translate(796 1331)" d="m0 0c0.76-0.03 1.51-0.05 2.29-0.08 2.74 0.43 3.27 1.22 5.09 3.33 1.33 2.09 2.6 4.17 3.85 6.31 0.37 0.63 0.74 1.26 1.12 1.91 0.8 1.36 1.6 2.72 2.4 4.09 2.12 3.61 4.25 7.22 6.39 10.8 0.43 0.73 0.87 1.47 1.31 2.23 4.06 6.87 8.14 13.7 12.3 20.6 0.73 1.21 1.46 2.42 2.18 3.64 1.01 1.68 2.03 3.37 3.04 5.05 0.86 1.42 0.86 1.42 1.73 2.87 1.7 2.49 3.52 4.47 5.72 6.52v-3h2c0.26-0.7 0.52-1.4 0.8-2.12 1.29-3.1 2.78-6 4.36-8.97 0.3-0.57 0.61-1.14 0.92-1.74 0.99-1.85 1.98-3.7 2.98-5.54 0.34-0.64 0.67-1.27 1.02-1.92 4.43-8.24 8.91-16.4 13.9-24.4 1.51-2.5 2.83-4.93 4.11-7.54 5.16-10.2 5.16-10.2 10.3-12 4.56-0.39 8.29-0.25 12.6 1.2 0.93 20.4 1.15 40.8 1.13 61.2-0.01 4.19-0.01 8.38 0 12.6v9.78 4.64c0 2.13 0 4.27-0.01 6.4v3.67c-0.12 2.7-0.12 2.7-1.12 3.7-2.85 0.1-5.66 0.14-8.5 0.13-1.2 0-1.2 0-2.42 0.01-5.96-0.01-5.96-0.01-7.08-1.14-0.13-1.96-0.18-3.93-0.21-5.9-0.03-1.89-0.03-1.89-0.06-3.82-0.02-1.39-0.03-2.77-0.05-4.16l-0.06-4.23c-0.06-3.72-0.11-7.44-0.16-11.2-0.05-3.8-0.1-7.59-0.16-11.4-0.11-7.45-0.21-14.9-0.3-22.4-0.43 0.74-0.86 1.49-1.3 2.25-1.61 2.8-3.22 5.6-4.84 8.39-0.69 1.2-1.38 2.41-2.07 3.61-4.57 7.93-9.17 15.8-13.9 23.7-1.23 2.04-2.4 4.11-3.52 6.21-2.56 4.73-2.56 4.73-4.33 6.88-3.13 0.56-3.13 0.56-6 0-2.14 0.43-2.14 0.43-4 1-6.13-9.28-11.9-18.8-17.7-28.2-0.37-0.6-0.73-1.2-1.11-1.82-1.07-1.78-2.14-3.55-3.22-5.32-0.67-1.12-1.35-2.24-2.05-3.39-1.25-2.08-2.49-4.17-3.72-6.27-0.53-0.91-1.06-1.81-1.61-2.75-0.46-0.79-0.92-1.58-1.39-2.4-1.1-1.95-1.1-1.95-3.21-2.8 0.16 0.54 0.32 1.07 0.49 1.63 0.6 2.83 0.62 5.43 0.62 8.33v3.64c-0.01 1.29-0.01 2.58-0.02 3.92v4.01l-0.03 10.6c-0.01 3.59-0.01 7.18-0.02 10.8-0.01 7.04-0.02 14.1-0.04 21.1-5.38 2.69-12 1-18 1v-102c3.43-0.69 6.2-1.18 9.62-1.25z" fill="#FBFCFE"/>
<path transform="translate(8.25 1330)" d="m0 0c6.01 0.06 6.01 0.06 8.94 2.06 3.81 4.41 3.81 4.41 3.81 7.5 0.99 0.33 1.98 0.66 3 1 1.61 1.78 1.61 1.78 3.19 3.94 0.53 0.71 1.06 1.42 1.6 2.15 1.21 1.91 1.21 1.91 1.21 3.91 0.62 0.25 1.24 0.5 1.87 0.75 2.56 1.5 2.89 2.62 4.13 5.25 1.31 1.36 2.65 2.69 4 4 1.08 1.18 2.14 2.37 3.19 3.56 0.51 0.58 1.02 1.16 1.54 1.76 1.27 1.68 1.27 1.68 2.27 4.68l5 5v2c0.99 0.33 1.98 0.66 3 1 0.68 1.33 1.35 2.66 2 4 1.31 1.36 2.65 2.69 4 4 1.79 2.05 3.56 4.12 5.32 6.2 1.75 2.01 1.75 2.01 4.68 3.8-0.01-0.61-0.03-1.21-0.04-1.84-0.16-6.39-0.3-12.8-0.44-19.2-0.06-2.38-0.11-4.75-0.17-7.13-0.72-29.7-0.72-29.7 0.65-36.8 3.02-1.51 6.13-1.18 9.44-1.18 0.68-0.02 1.36-0.03 2.06-0.04 3.73-0.01 5.32 0.1 8.5 2.22 0.37 1.81 0.37 1.81 0.37 4.03 0 0.85 0.01 1.69 0.01 2.56 0 0.92-0.01 1.85-0.02 2.8v2.96c0.01 3.23-0.01 6.46-0.03 9.69 0 2.23-0.01 4.47-0.01 6.71 0 4.69-0.02 9.38-0.04 14.1-0.03 6.03-0.04 12.1-0.04 18.1l-0.03 13.9c0 2.22-0.01 4.44-0.01 6.67-0.01 3.1-0.02 6.2-0.04 9.3v2.81c-0.05 6.34-0.05 6.34-1.16 7.45-6.34 0.74-12.3 1.21-17.6-2.68-2.78-2.48-4.63-5-6.37-8.32-1.33-1.34-2.66-2.67-4-4-1.25-1.5-2.48-3.02-3.69-4.56-2.89-3.65-5.8-7.28-8.75-10.9-0.75-0.91-1.5-1.82-2.27-2.76-1.53-1.88-3.07-3.75-4.61-5.62-4.04-4.92-8.02-9.87-11.9-14.9-2.02-2.6-4.04-5.19-6.08-7.78-0.66-0.83-1.31-1.67-1.99-2.53-1.56-2.06-1.56-2.06-3.7-2.97l1 3c0.09 2.04 0.12 4.08 0.11 6.13v3.82c0 1.37-0.01 2.75-0.01 4.13 0 1.4-0.01 2.81-0.01 4.22 0 3.71-0.01 7.41-0.02 11.1-0.01 3.78-0.02 7.56-0.02 11.3-0.01 7.42-0.03 14.8-0.05 22.2-3.58 0.76-6.89 1.16-10.6 1.19-1.4 0.02-1.4 0.02-2.82 0.04-2.72-0.24-4.24-0.95-6.62-2.23-0.05-12.9-0.08-25.7-0.1-38.6-0.01-5.98-0.03-12-0.05-17.9-0.02-5.76-0.03-11.5-0.04-17.3 0-2.21-0.01-4.41-0.02-6.61-0.02-3.08-0.02-6.16-0.02-9.23 0-0.92-0.01-1.84-0.02-2.79 0-0.83 0.01-1.67 0.01-2.53 0-0.73 0-1.46-0.01-2.21 0.65-4.7 4.65-4.21 8.5-4.35z" fill="#FBFCFE"/>
<path transform="translate(1349 1333)" d="m0 0c3.63 3.35 6.64 7.26 9.71 11.1 2.1 2.61 4.24 5.15 6.42 7.68 5.12 5.94 9.9 12.1 14.6 18.4 3.83 5.16 7.76 10.2 11.8 15.3 2.96 3.74 5.83 7.53 8.62 11.4 1.09 1.51 1.09 1.51 3.12 2.36-0.17-1.21-0.34-2.41-0.51-3.65-0.7-6.31-0.51-12.6-0.37-18.9 0.03-1.91 0.03-1.91 0.07-3.86 0.06-3.36 0.13-6.72 0.2-10.1 0.07-3.44 0.14-6.88 0.2-10.3 0.13-6.73 0.27-13.5 0.41-20.2 2.6-0.2 5.21-0.38 7.81-0.57 0.74-0.05 1.48-0.11 2.24-0.16 3.32-0.23 5.76-0.34 8.95 0.73v101c-4.46 0.49-4.46 0.49-9 1-1.07 0.12-2.15 0.24-3.25 0.37-5.65-0.77-9.34-7.1-12.9-11.3-0.71-0.85-0.71-0.85-1.44-1.71-3.8-4.53-7.46-9.16-11.1-13.8-3.76-4.82-7.63-9.56-11.5-14.3-0.59-0.72-1.19-1.44-1.8-2.18-3.21-3.89-3.21-3.89-6.41-7.77-1.17-1.41-2.32-2.82-3.48-4.24-0.61-0.75-1.23-1.5-1.86-2.28-1.26-1.78-1.26-1.78-1.26-3.78h-2c-1.63-2-1.63-2-3-4-0.02 1.2-0.02 1.2-0.03 2.42-0.1 7.52-0.2 15-0.31 22.6-0.06 3.87-0.11 7.73-0.16 11.6-0.05 3.73-0.1 7.45-0.16 11.2-0.02 1.43-0.03 2.85-0.05 4.28l-0.09 5.97c-0.01 1.13-0.03 2.27-0.04 3.44-0.16 2.55-0.16 2.55-1.16 3.55h-19v-102c13-1.63 13-1.63 16.8 0.81z" fill="#FBFCFE"/>
<path transform="translate(1048 1332)" d="m0 0c5.07 4.83 9.15 10.7 13.4 16.2 2.7 3.48 5.52 6.84 8.39 10.2 3.76 4.39 7.39 8.87 10.9 13.4 5.17 6.67 10.6 13.1 16.2 19.4 1.84 2.17 3.61 4.4 5.38 6.63-0.01-0.93-0.01-1.86-0.02-2.82-0.05-13.2 0.23-26.5 0.52-39.7 0.05-2.29 0.1-4.57 0.14-6.85l0.36-16.6c3.94-0.58 7.76-1.14 11.8-1.13h2.23c2.02 0.13 2.02 0.13 5.02 1.13v101c-13.8 1.26-13.8 1.26-18 0-2.03-2-3.47-3.7-5.06-6-0.95-1.28-1.89-2.56-2.84-3.83-0.5-0.68-1-1.36-1.51-2.06-2.78-3.7-5.75-7.24-8.71-10.8-1.2-1.45-2.4-2.89-3.59-4.34-1.1-1.32-2.19-2.65-3.29-3.97-6.8-8.23-13.4-16.6-20-25-0.6-0.75-1.2-1.51-1.82-2.29-1.18-1.71-1.18-1.71-1.18-3.71h-2l-3-3v65c-5.67 2.84-12.7 1-19 1v-102c12.3-2.06 12.3-2.06 15.7 0.07zm61.3 98.9v2l2-1-2-1z" fill="#FBFCFE"/>
<path transform="translate(430 1331)" d="m0 0c0.94-0 1.89-0.01 2.86-0.01 1.02 0 2.04 0 3.09 0.01 1.57-0 1.57-0 3.18-0.01 2.22 0 4.44 0 6.66 0.01 3.4 0 6.79-0 10.2-0.01 2.15 0 4.31 0 6.47 0.01 1.01-0.01 2.03-0.01 3.07-0.01 0.96 0 1.91 0.01 2.89 0.01h2.52c4.29 0.23 7.63 1.13 11.4 3.13 1.08 0.41 2.15 0.82 3.25 1.25 8.29 3.55 15.8 10.1 19.6 18.4 3.49 9.94 3.4 20.7-0.82 30.4-3.78 7.28-9.04 13.4-17 16 1.56 4.7 4.17 8.17 7.13 12.1 4.86 6.5 9.45 13.1 13.9 19.9l-1 2c-2.56 0.03-5.12 0.05-7.68 0.06-0.73 0.01-1.45 0.02-2.19 0.03-7.71 0.03-7.71 0.03-11.1-1.09-1.99-2.25-1.99-2.25-3.88-5.21-0.69-1.06-1.38-2.12-2.1-3.21-0.71-1.13-1.43-2.26-2.14-3.39-1.42-2.2-2.84-4.39-4.26-6.59-0.62-0.97-1.25-1.95-1.89-2.96-1.66-2.62-1.66-2.62-3.45-4.87-1.28-1.77-1.28-1.77-1.28-3.77l-26 1v29c-2.76 0.16-5.52 0.33-8.37 0.5-0.87 0.05-1.74 0.1-2.64 0.16-5.77 0.34-5.77 0.34-7.99 0.34v-102c2.88-0.96 4.68-1.13 7.67-1.13zm37.3 1.13v1h6v-1h-6zm-26 16v41c1.49-0.5 1.49-0.5 3-1 1.89-0.05 3.78-0.04 5.67 0.01 1.68 0.02 1.68 0.02 3.4 0.05 2.35 0.04 4.7 0.09 7.05 0.15 7.81 0.1 15-0.06 21.3-5.11 0.53-0.67 1.07-1.35 1.62-2.04 0.56-0.67 1.12-1.34 1.69-2.03 2.93-4.54 2.81-9.78 2.31-15-1.63-4.81-3.79-9.05-7-13-3.11-1.43-3.11-1.43-6-2v-1c-11.2-1.39-21.7-1.03-33 0z" fill="#F8F9FB"/>
<path transform="translate(126 1331)" d="m0 0c0.67-0 1.34-0 2.03-0.01 2.21 0 4.43 0 6.64 0.01 1.54-0 3.07-0.01 4.61-0.01 3.22 0 6.45 0 9.67 0.01h12.4c3.18-0.01 6.35-0.01 9.53-0 1.52-0 3.05-0 4.57-0.01 2.13 0 4.26 0 6.39 0.01h3.68c2.97 0.13 2.97 0.13 5.97 1.13v15l-53 1v24c0.97 1.19 0.97 1.19 2.75 1.1 1.14-0.02 1.14-0.02 2.31-0.04 0.87-0.01 1.74-0.01 2.63-0.02 0.95-0.02 1.89-0.03 2.87-0.04 12.2-0.09 24.3 0.41 36.4 1v16h-48v26c3.87 0.06 7.75 0.12 11.7 0.18 3.74 0.06 7.48 0.13 11.2 0.19 2.6 0.05 5.21 0.09 7.81 0.13 3.74 0.05 7.48 0.12 11.2 0.18 1.17 0.02 2.34 0.04 3.55 0.05 1.08 0.02 2.16 0.04 3.27 0.06 1.43 0.03 1.43 0.03 2.9 0.05 2.29 0.16 2.29 0.16 4.29 1.16v15c-14.8 0.93-29.6 1.19-44.5 1.18-3.72 0.01-7.43 0.03-11.1 0.04-2.36 0.01-4.73 0.01-7.09 0.01-1.11 0.01-2.21 0.01-3.36 0.02-1.01 0-2.03 0-3.08-0.01-1.34 0-1.34 0-2.71 0.01-2.15-0.25-2.15-0.25-4.15-2.25-1.76-10.3-1.15-21.1-1.14-31.5v-5.28c0-3.66 0-7.32 0.01-11 0-4.67 0-9.35-0.01-14v-10.9-5.17c0-2.41 0-4.82 0.01-7.23 0-0.7-0.01-1.4-0.01-2.13 0.02-4.35 0.28-8.53 1.14-12.8 2.86-1.43 5.31-1.13 8.51-1.13z" fill="#FBFCFE"/>
<path transform="translate(700 1331)" d="m0 0c0.65-0 1.3-0 1.97-0.01 2.13 0 4.26 0.01 6.4 0.02h4.46c3.11 0.01 6.23 0.01 9.34 0.03 3.99 0.01 7.98 0.02 12 0.02 3.06 0 6.13 0 9.2 0.01 1.47 0 2.95 0.01 4.42 0.01 2.05 0 4.1 0.01 6.16 0.02 1.17 0 2.33 0.01 3.54 0.01 2.87 0.13 2.87 0.13 5.87 1.13v15c-27.2 0.5-27.2 0.5-55 1v26h3l1-2c0.51 0.17 1.02 0.33 1.55 0.5 3.27 0.67 6.35 0.56 9.7 0.5 7.59-0.06 15.2 0.14 22.8 0.44 1.07 0.04 2.14 0.08 3.24 0.12 1.49 0.06 1.49 0.06 3.01 0.13 1.34 0.05 1.34 0.05 2.7 0.11 2.05 0.2 2.05 0.2 3.05 1.2l-1 15h-49v28h3l1-2c7.21 0.1 14.4 0.2 21.6 0.32 2.46 0.04 4.91 0.07 7.36 0.1 3.53 0.05 7.05 0.11 10.6 0.17 1.1 0.01 2.2 0.02 3.33 0.03 1.02 0.02 2.05 0.04 3.1 0.06 0.9 0.02 1.8 0.03 2.72 0.04 2.3 0.28 2.3 0.28 5.3 2.28 0.29 3.26 0.29 3.26 0.19 7.13-0.04 1.92-0.04 1.92-0.08 3.88-0.06 1.48-0.06 1.48-0.11 2.99-10 0.16-20 0.3-30.1 0.45-4.65 0.06-9.3 0.13-14 0.2-4.48 0.07-8.97 0.13-13.5 0.2-1.71 0.02-3.43 0.05-5.14 0.07-2.4 0.04-4.79 0.07-7.19 0.1-1.07 0.02-1.07 0.02-2.17 0.04-1.67 0.02-3.34-0.01-5.01-0.06-1.94-1.94-1.12-4.88-1.12-7.47 0-0.93 0-1.86 0.01-2.82v-2.96c0-3.24 0-6.48 0.01-9.72 0-2.24 0.01-4.48 0.01-6.72 0-5.91 0.01-11.8 0.02-17.7 0.01-6.03 0.02-12 0.02-18.1 0.01-11.8 0.03-23.7 0.05-35.5 4.03-1.9 7.23-2.25 11.7-2.24z" fill="#FCFDFF"/>
<path transform="translate(335 1331)" d="m0 0c0.67-0 1.34-0 2.03-0.01 2.22 0 4.43 0 6.64 0.01 1.54-0 3.08-0.01 4.62-0.01 3.22 0 6.44 0 9.66 0.01h12.4c3.17-0.01 6.35-0.01 9.52-0 1.53-0 3.05-0 4.58-0.01 2.13 0 4.26 0 6.38 0.01h3.68c2.84 0.13 2.84 0.13 4.84 1.13v15l-53 1c-0.97 2.91-1.13 4.79-1.14 7.82v2.81c0.01 1.45 0.01 1.45 0.01 2.93 0 0.97-0.01 1.94-0.01 2.95v2.81c0.01 0.85 0.01 1.7 0.01 2.57-0.01 2.17-0.01 2.17 1.13 4.11 1.77-0.14 3.54-0.29 5.31-0.44 0.99-0.08 1.97-0.16 2.99-0.24 2.79-0.24 2.79-0.24 5.7-1.32l1 1c1.6-0.23 3.2-0.47 4.8-0.73 4.28-0.53 8.58-0.5 12.9-0.52 0.94-0.02 1.88-0.04 2.84-0.06 0.91-0.01 1.81-0.01 2.74-0.02 0.81-0.01 1.63-0.02 2.47-0.03 2.85 0.45 4.21 1.35 6.27 3.36 0.42 3.32 0.42 3.32 0.31 7.12-0.04 1.9-0.04 1.9-0.07 3.82-0.24 3.06-0.24 3.06-1.24 4.06-1.51 0.09-3.02 0.12-4.52 0.11h-2.91c-1.05 0-2.09-0.01-3.17-0.01-1.06 0-2.13-0.01-3.22-0.01-3.42 0-6.83-0.02-10.2-0.03-2.3 0-4.61-0.01-6.92-0.01-5.67-0.01-11.3-0.03-17-0.05v27c3.94-0.01 7.89-0.02 12-0.04 3.81 0 7.62-0.01 11.4-0.02 2.65 0 5.3-0.01 7.96-0.02 3.81-0.01 7.61-0.01 11.4-0.02 1.19 0 2.39-0.01 3.61-0.01h3.34c0.97-0.01 1.95-0.01 2.95-0.01 2.33 0.12 2.33 0.12 4.33 1.12v15c-7.7 0.13-15.4 0.26-23.1 0.39-3.57 0.06-7.14 0.12-10.7 0.18-3.46 0.06-6.92 0.12-10.4 0.18-1.93 0.03-3.87 0.06-5.8 0.1-8.67 0.14-17.3 0.15-26 0.15v-102c3.41-1.14 6.04-1.13 9.64-1.13z" fill="#F6F7F9"/>
<path transform="translate(1250 1331)" d="m0 0c1.27-0.01 2.54-0.01 3.85-0.02h4.11c1.41-0.01 2.83-0.01 4.25-0.01 2.96-0.01 5.92-0.01 8.87-0.01 3.8 0 7.59-0.01 11.4-0.03 2.92-0.01 5.84-0.01 8.77-0.01 1.39 0 2.79-0.01 4.19-0.02 1.95-0.01 3.9 0 5.85 0h3.36c2.75 0.25 2.75 0.25 5.75 2.25 0.34 5.06-0.15 8.9-1 14-27.2 0.49-27.2 0.49-55 1v26h6l1-2v2h3v-2c1.75 0.23 1.75 0.23 3.53 0.46 7.66 0.86 15.4 0.9 23.1 1.09 2.02 0.05 4.04 0.11 6.05 0.16 1.2 0.03 2.39 0.06 3.62 0.1 2.73 0.19 2.73 0.19 3.73 1.19 0.1 1.6 0.13 3.2 0.12 4.81 0.01 1.31 0.01 1.31 0.01 2.64-0.12 2.36-0.34 4.32-1.13 6.55-2.4 1.19-3.87 1.12-6.54 1.11h-2.85c-1.02-0.01-2.04-0.01-3.09-0.02h-3.15c-3.33-0.01-6.67-0.02-10-0.03-2.25-0.01-4.51-0.01-6.76-0.02-5.54-0.01-11.1-0.03-16.6-0.04v28c2.97-0.5 2.97-0.5 6-1 1.71-0.09 3.42-0.13 5.13-0.13 0.97-0.01 1.94-0.01 2.94-0.01h3.13 3.25 6.77c3.46 0.01 6.93 0 10.4 0h6.59 3.14c0.96 0 1.92 0 2.91 0.01h2.57c2.18 0.13 2.18 0.13 5.18 1.13v15c-16.4 1.06-32.8 1.11-49.2 1.06-2.61-0.01-5.22-0.01-7.82-0.02-6.31-0.01-12.6-0.02-18.9-0.04-0.13-8.94-0.27-17.9-0.39-26.8-0.06-4.15-0.12-8.31-0.18-12.5-0.24-15.9-0.48-31.9-0.53-47.8 0-1.06-0.01-2.12-0.02-3.21v-2.93-2.51c0.12-2.21 0.5-4.13 1.12-6.24 4.58-0.73 8.98-1.13 13.6-1.15z" fill="#FBFCFE"/>
<path transform="translate(263 1330)" d="m0 0c1.3-0.02 1.3-0.02 2.62-0.04 5.53-0.01 10.2 0.67 15.6 2.23v2c1.08-0.1 1.08-0.1 2.19-0.2 3.48 0.25 4.96 1.32 7.74 3.39 0.87 0.63 1.73 1.26 2.62 1.92 2.88 2.22 5.69 4.5 8.45 6.89-2.06 4.56-5.01 7.99-9 11-2.63 0.06-2.63 0.06-5-1-0.91-0.31-1.82-0.62-2.75-0.94-2.25-1.06-2.25-1.06-3.25-3.06-8.28-5.48-19.5-5.44-29-4-9.68 2.52-17.5 8.74-23 17-4.39 8.33-4.42 19.9-2.31 29 2.92 7.92 7.7 15.1 15.3 19 11 4.6 23.6 5.18 35 2l4-1v-32c3.51-1.17 6.36-1.14 10.1-1.13 1.87 0 1.87 0 3.79-0.01 3.15 0.14 3.15 0.14 5.15 1.14 0.2 5.74 0.34 11.5 0.44 17.2 0.04 1.95 0.09 3.91 0.16 5.86 0.1 2.82 0.14 5.63 0.18 8.44 0.04 0.87 0.08 1.74 0.12 2.64 0.01 2.51-0.08 4.44-0.9 6.82-2.4 2.3-5 3.63-8 5-0.71 0.37-1.42 0.74-2.15 1.13-9.68 5.03-20.7 6.12-31.5 6.18-0.76 0.01-1.51 0.01-2.29 0.02-4.17-0.06-7.32-0.57-11.1-2.33-1.7-0.54-3.41-1.06-5.13-1.57-2.64-0.77-5.26-1.56-7.87-2.43v-2c-0.66-0.21-1.32-0.41-2-0.63-10.1-4.62-16.8-12.9-21.2-22.9-2.33-6.89-3.18-13-3.13-20.2 0-0.89 0-1.77 0.01-2.68 0.19-10.5 2.73-18.6 8.3-27.5 0.62-1.05 1.24-2.11 1.87-3.19 2.21-2.92 4.51-5.04 7.35-7.32 1.87-1.5 1.87-1.5 3.63-3.54 2.57-2.34 4.71-3.07 8.02-4.08 1.01-0.31 2.02-0.62 3.06-0.94 1.01-0.31 2.02-0.62 3.07-0.93 1.01-0.35 2.02-0.7 3.07-1.06 5.99-1.93 11.5-2.13 17.7-2.13zm-4.81 88.2v1h7v-1h-7z" fill="#F9FAFC"/>
<path transform="translate(975,1333)" d="m0 0c1.15 2.59 2.15 5.16 3.12 7.81 3.93 10.2 8.46 20.2 13.1 30.1 0.74 1.6 1.49 3.21 2.23 4.82 0.55 1.19 0.55 1.19 1.12 2.41 0.37 0.8 0.73 1.59 1.11 2.41 0.37 0.8 0.74 1.59 1.12 2.41 5.06 11 9.99 22 14.9 33 0.92 2.05 1.88 4.08 2.86 6.11 0.47 0.98 0.94 1.95 1.42 2.95 0.64 1.29 0.64 1.29 1.29 2.61 0.88 2.61 0.74 3.79-0.21 6.34-2.77 0.11-5.54 0.19-8.31 0.25-0.79 0.03-1.57 0.07-2.38 0.1-1.14 0.02-1.14 0.02-2.3 0.04-1.04 0.03-1.04 0.03-2.11 0.06-1.9-0.45-1.9-0.45-3.53-2.19-1.35-2.22-2.4-4.37-3.38-6.77-0.34-0.84-0.69-1.68-1.05-2.55-0.35-0.86-0.7-1.73-1.06-2.63-0.71-1.73-1.42-3.46-2.14-5.2-0.31-0.76-0.62-1.53-0.94-2.32-0.66-1.77-0.66-1.77-1.8-2.79-3.02-0.11-6.02-0.16-9.04-0.17-1.37 0-1.37 0-2.77-0.01-1.94 0-3.88-0.01-5.83-0.01-2.95 0-5.91-0.02-8.86-0.03-1.89-0.01-3.78-0.01-5.66-0.01-0.88-0.01-1.76-0.01-2.67-0.02-5.08 0.02-9.45 0.26-14.2 2.25-1.72 2.1-1.72 2.1-2.62 4.75-0.38 0.94-0.76 1.88-1.15 2.84-0.36 0.98-0.73 1.96-1.11 2.97-0.76 1.94-1.53 3.88-2.3 5.82-0.33 0.86-0.65 1.72-0.99 2.61-0.83 2.01-0.83 2.01-1.83 3.01-2.99 0.13-5.95 0.19-8.94 0.19-1.25 0.02-1.25 0.02-2.53 0.03-0.81 0.01-1.61 0.01-2.43 0.01-0.74 0-1.48 0.01-2.24 0.01-1.86-0.24-1.86-0.24-3.86-2.24 0.33-0.71 0.66-1.41 1-2.14 6-12.8 12-25.7 17.7-38.6 4.85-11 9.74-21.9 14.6-32.9 0.81-1.8 1.62-3.61 2.43-5.42 1.14-2.55 2.28-5.1 3.42-7.64 0.34-0.76 0.68-1.53 1.03-2.31 3.43-7.61 3.43-7.61 5.78-11 5.91-1.92 14.8-2.48 20 1zm-11 20c-6.43 13.8-12.5 27.8-18 42 1.67 0.04 3.33 0.04 5 0 0.5-0.49 0.5-0.49 1-1 2.22-0.09 4.44-0.11 6.66-0.1 1 0 1 0 2.01 0.01 2.13 0 4.26 0.01 6.39 0.03 1.44 0 2.88 0.01 4.32 0.01 3.54 0.01 7.08 0.03 10.6 0.05-1.36-4.26-2.94-8.36-4.71-12.5-0.79-1.82-0.79-1.82-1.58-3.68-0.55-1.26-1.1-2.53-1.65-3.8-0.54-1.26-1.08-2.52-1.63-3.78-1-2.34-2.01-4.68-3.02-7.01-1.48-3.42-2.94-6.85-4.41-10.3h-1z" fill="#FBFCFE"/>
<path transform="translate(691,1501)" d="m0 0c12.4 9.16 18.2 21 20.6 35.9 2.06 18-0.61 35.7-11.4 50.5-5.87 6.56-14 9.82-22.2 12.6-2.66 0.12-5.28 0.19-7.94 0.19-0.71 0.01-1.43 0.02-2.17 0.03-3.81 0.02-6.66-0.12-9.89-2.22-2.79-1.49-2.79-1.49-5.82-2.31-7.38-2.33-13.3-10.4-16.9-16.9-7.52-16.6-8.91-36.4-3.25-53.8 4.52-11.3 10.4-19.7 21-26 2.62-0.89 5.07-1.63 7.75-2.25 0.71-0.17 1.41-0.33 2.14-0.5 11.2-2.48 18.2-1.56 28.1 4.75zm-38.5 15.2c-8.46 10.1-10.2 24.1-9.53 36.8 1.23 11.7 4.07 21.8 13 30 4.85 3.3 8.34 3.18 14 3 0.8 0.2 1.61 0.41 2.44 0.62 4.81 0.72 8.62-2.08 12.6-4.62 6.94-5.69 9.49-14.4 11-23 1.07-14.9 1.56-30.3-8.55-42.4-0.48-0.54-0.96-1.09-1.45-1.65-0.7-0.97-1.4-1.94-2.12-2.94-1.99-2.18-2.99-2.75-5.88-3.06v-1c-9.73-0.75-18.2 1.39-25.5 8.17zm13.5 69.8 4 1z" fill="#F8F9FB"/>
<path transform="translate(817 1496)" d="m0 0c1.17-0 2.34-0.01 3.55-0.01 1.25 0 2.51 0 3.8 0.01 1.3-0 2.59-0.01 3.93-0.01 2.73 0 5.47 0 8.2 0.01h10.5c3.35-0.01 6.69-0.01 10-0 1.26-0.01 2.52-0.01 3.82-0.01 1.16 0 2.33 0.01 3.53 0.01h3.11c2.56 0.13 2.56 0.13 5.56 1.13 1 4.89 0.83 8.6-1.73 13-2.14 2.78-4.34 5.48-6.63 8.13-2.46 2.87-4.85 5.81-7.25 8.74-2.33 2.83-4.68 5.66-7.03 8.47-1.2 1.51-2.29 3.1-3.36 4.7 0.93-0.21 1.86-0.41 2.82-0.63 3.18-0.37 3.18-0.37 6.18 1.63 1.62 0.81 3.25 1.6 4.88 2.37 7.69 3.86 11.5 7.8 15.1 15.6 2.52 7.83 1.66 16.4-1.75 23.8-5.08 9.18-12.8 13-22.5 16.4-4.64 1.06-9 1.23-13.8 1.23-1.29 0.04-1.29 0.04-2.61 0.08-6.08 0.03-9.3-1.18-14.4-4.45-2.24-0.63-2.24-0.63-4.25-0.69-4.5-0.37-7.2-1.49-10.9-3.87-0.72-0.46-1.43-0.91-2.17-1.38-0.82-0.53-0.82-0.53-1.65-1.06 0.58-4.76 2.55-7.97 5-12 4.15 0.82 7.29 2.8 10.9 4.94 2.18 1.28 2.18 1.28 5.12 1.06v2h16v1c7.04-0.46 13.1-1.11 18.3-6.31 3.12-4.97 4.15-8.98 3.23-14.7-0.87-3.12-2.59-5.42-4.55-7.96l-2-3c-4.12-1.26-8.46-1.31-12.8-1.56-0.68-0.05-1.37-0.09-2.07-0.13-3.09-0.22-3.09-0.22-6.18-0.31h-3c-1.59-8.74-1.59-8.74 0.38-12.9 0.85-1.04 1.73-2.06 2.62-3.06 1.38-1.69 2.76-3.37 4.13-5.06 0.77-0.94 1.55-1.87 2.35-2.84 4.31-5.25 8.4-10.7 12.5-16.1-2.3-1.15-3.69-1.15-6.26-1.21-1.32-0.03-1.32-0.03-2.67-0.06-0.95-0.01-1.91-0.03-2.89-0.05-1.46-0.03-1.46-0.03-2.95-0.06-3.12-0.07-6.23-0.12-9.35-0.18-2.11-0.05-4.22-0.09-6.33-0.13-5.18-0.11-10.4-0.21-15.6-0.31v-13c3.94-0.79 6.99-1.13 10.9-1.13z" fill="#FBFCFE"/>
<path transform="translate(617 1331)" d="m0 0c1.42-0.01 1.42-0.01 2.87-0.02h3.08c1.58-0.01 1.58-0.01 3.19-0.01 2.21-0.01 4.43-0.01 6.65-0.01 3.4 0 6.8-0.02 10.2-0.04 2.16 0 4.32 0 6.47-0.01 1.02 0 2.04-0.01 3.08-0.02 0.95 0.01 1.9 0.01 2.88 0.01h2.52c2.49 0.27 4.12 1 6.27 2.25-0.06 9.73-0.14 19.5-0.23 29.2-0.05 4.53-0.09 9.05-0.11 13.6-0.03 4.37-0.07 8.74-0.12 13.1-0.02 1.66-0.03 3.32-0.03 4.98-0.05 12.1-0.25 23.4-9 32.7-4.38 4.13-8.76 5.86-14.5 7.41-0.99 0.33-1.98 0.66-3 1-2.04 0.09-4.08 0.13-6.12 0.12-1.08 0-2.15 0.01-3.26 0.01-2.62-0.13-2.62-0.13-3.62-1.13-1.55-0.35-3.12-0.66-4.68-0.94-10.2-1.98-10.2-1.98-13.3-5.06-0.62-0.29-1.23-0.58-1.87-0.88-2.61-1.38-4.29-2.81-6.13-5.12 0.25-4.1 2.87-6.37 5.57-9.25 0.82-0.9 1.65-1.79 2.5-2.71 0.64-0.67 1.28-1.35 1.93-2.04l1 2c0.54 0.26 1.08 0.53 1.63 0.81 2.37 1.19 2.37 1.19 5.12 3.81 3.83 2.82 7.78 2.9 12.4 2.94 0.69 0.01 1.38 0.03 2.1 0.04 4.86-0.09 7.35-1.2 10.8-4.6 4.51-6.31 3.21-17 3.32-24.4 0.02-1.16 0.04-2.33 0.06-3.53 0.07-3.7 0.13-7.4 0.19-11.1 0.04-2.52 0.08-5.04 0.13-7.56 0.1-6.15 0.21-12.3 0.3-18.4-1.62 0-1.62 0-3.29 0.01-4.01 0.02-8.02 0.03-12 0.04-1.74 0.01-3.48 0.01-5.22 0.02-2.5 0.01-4.99 0.02-7.48 0.02-0.79 0.01-1.57 0.01-2.37 0.02-1.87 0-3.74-0.05-5.61-0.11-1-1-1-1-1.09-4.38 0-1.4 0.01-2.79 0.03-4.19 0.01-0.71 0.01-1.42 0.01-2.15 0.02-1.76 0.03-3.52 0.05-5.28 3-0.87 5.68-1.14 8.8-1.15z" fill="#F8F9FB"/>
<path transform="translate(1151 1331)" d="m0 0c0.74-0 1.47-0.01 2.23-0.02 2.42-0.01 4.83-0.02 7.25-0.02 1.69-0.01 3.37-0.01 5.06-0.02 3.52-0.01 7.05-0.02 10.6-0.02 4.52 0 9.04-0.03 13.6-0.06 3.47-0.02 6.95-0.02 10.4-0.02 1.67-0.01 3.33-0.01 5-0.03 2.32-0.01 4.65-0.01 6.97-0.01 0.69 0 1.38-0.01 2.09-0.02 2.82 0.02 4.7 0.09 7.06 1.71 1.73 2.74 1.09 5.21 0.74 8.36-0.12 1.18-0.24 2.36-0.36 3.57-0.11 0.91-0.21 1.81-0.32 2.74-4 0.17-8 0.34-12 0.5-1.13 0.05-2.25 0.1-3.41 0.15-1.11 0.04-2.21 0.09-3.34 0.13-1.01 0.04-2.01 0.09-3.05 0.13-3.74 0.11-7.47 0.1-11.2 0.09v3.22c0.02 9.99 0.04 20 0.05 30 0 5.13 0.01 10.3 0.02 15.4 0.01 4.95 0.02 9.91 0.02 14.9 0 1.9 0.01 3.79 0.01 5.68 0.01 2.65 0.01 5.29 0.01 7.93 0 0.8 0.01 1.59 0.01 2.4-0.01 5.41-0.01 5.41-1.12 6.52h-18l-1-86h-32v-16c5.04-0.72 9.68-1.15 14.7-1.16z" fill="#FCFDFF"/>
<path transform="translate(758 1495)" d="m0 0c9.57-0.57 17.2 3.45 24.7 9.13 6.17 5.89 8.37 12.3 8.62 20.8-0.42 11.1-4.39 18.2-11.6 26.5-0.66 0.77-1.32 1.54-1.99 2.33-5.89 6.7-12.2 13-18.6 19.2-1.32 1.3-2.61 2.63-3.91 3.95-2.02 1.98-4.06 3.82-6.21 5.65-0.62 0.53-1.25 1.07-1.9 1.62-0.47 0.4-0.95 0.81-1.44 1.22h1.77c6.07-0.03 12.1-0.04 18.2-0.05 2.27-0.01 4.53-0.01 6.8-0.02 3.25-0.01 6.5-0.02 9.76-0.02 1.52-0.01 1.52-0.01 3.08-0.02h2.85c1.25 0 1.25 0 2.52-0.01 2.02 0.12 2.02 0.12 4.02 1.12v11c-35.6 0.5-35.6 0.5-72 1 0-10 0-10 2.13-13.1 0.95-0.85 1.89-1.69 2.87-2.55 0.5-0.46 1-0.92 1.52-1.39 1.47-1.34 2.97-2.63 4.48-3.93 1.16-1.02 1.16-1.02 2.34-2.07 1.26-1.11 2.53-2.21 3.81-3.29 2.39-2.11 4.6-4.38 6.85-6.64 1.78-1.73 3.56-3.47 5.35-5.2 1.53-1.5 3.05-3 4.58-4.51 1.05-1.02 2.09-2.04 3.14-3.06 8.05-7.79 15.5-15.1 16.1-26.9-0.28-5.17-2.24-8.82-6-12.2-2.92-1.99-4.66-2.82-8.13-3.13v-1c-9.03-0.72-18 0.93-25.5 6.25-2.5 1.75-2.5 1.75-6.5 1.75l1 3c-4.98-1.51-8.24-4.55-12-8 6.6-9.51 17-13.8 28.1-15.9 3.69-0.61 7.41-1.01 11.1-1.45z" fill="#F9FAFC"/>
<path transform="translate(592,1496)" d="m0 0 2 2c1.57 0.75 3.16 1.48 4.75 2.19 6.27 3.09 10.2 7.02 13.1 13.4 2.69 8.33 2.3 18.2-1.55 26-5.62 10.2-14.8 18.2-23.1 26.3l-4.02 3.99c-2.93 2.91-5.87 5.82-8.82 8.73-1.47 1.46-2.94 2.93-4.41 4.4 1.75 2.16 1.75 2.16 3.81 2.23 0.73-0.01 1.46-0.02 2.21-0.03 1.24-0.01 1.24-0.01 2.51-0.02 0.89-0.02 1.79-0.04 2.71-0.06 0.92 0 1.84-0.01 2.79-0.02 3.94-0.03 7.89-0.09 11.8-0.14 2.88-0.04 5.76-0.06 8.63-0.08 0.89-0.02 1.79-0.04 2.7-0.06 0.84 0 1.67-0.01 2.53-0.02 0.73-0.01 1.46-0.02 2.22-0.03 2.06 0.23 2.06 0.23 6.06 2.23v10c-1.27 0.02-1.27 0.02-2.56 0.03-7.96 0.1-15.9 0.2-23.9 0.31-4.1 0.05-8.19 0.11-12.3 0.16-3.95 0.05-7.9 0.1-11.8 0.15-1.5 0.02-3.01 0.04-4.52 0.06-2.11 0.02-4.22 0.05-6.33 0.08-1.2 0.02-2.4 0.04-3.64 0.05-3 0.03-3 0.03-5.94 1.16l-2-1c-0.61-4.39-1.04-8.33 1.37-12.2 1.95-2.13 3.98-4.06 6.13-5.98 0.7-0.66 1.39-1.32 2.11-2 3.32-3.12 6.74-6.11 10.2-9.09 4.97-4.33 9.68-8.94 14.4-13.6 1.02-1.01 2.04-2.02 3.08-3.02 7.99-7.76 15.2-15.1 15.9-26.8-0.3-5.11-2.33-8.92-6.14-12.4v-2l-8-1v-1c-11.6-0.73-20.5 1.29-29.4 8.83-1.56 1.17-1.56 1.17-3.56 1.17-3.47-1.43-6.13-3.61-9-6 0.75-4.25 2.51-5.83 5.77-8.48 12.7-8.69 29.2-11.6 44.2-8.52zm-24 88-1 2h2l-1-2z" fill="#F6F7F9"/>
<path transform="translate(538 1331)" d="m0 0c1.14-0 2.27-0.01 3.44-0.01 3 0.13 3 0.13 6 1.13v101c-5 1-5 1-20 1v-102c3.76-0.94 6.71-1.13 10.6-1.12z" fill="#E2E3E5"/>
<path transform="translate(1006,1176)" d="m0 0c6.23 1.04 7.56 1.98 11.1 6.56 0.47 0.58 0.94 1.16 1.42 1.75 4.08 5.07 7.97 10.3 11.8 15.5 3.56 4.8 7.26 9.47 11.1 14.1 5.01 6.1 9.87 12.3 14.6 18.6 5.22 6.89 10.6 13.6 15.9 20.5l1-76h8v90c-7 1-7 1-9.08-0.38-0.57-0.72-1.14-1.44-1.73-2.18-0.67-0.83-1.34-1.67-2.03-2.52-3.26-4.4-6.45-8.84-9.6-13.3-6.31-8.96-13.2-17.5-20.1-26-6.58-8.2-13-16.5-19.2-25-1.23-1.64-1.23-1.64-2.79-3.11-1.46-1.48-1.46-1.48-3.46-4.48-0.02 1.44-0.02 1.44-0.03 2.92-0.1 9.05-0.2 18.1-0.31 27.2-0.05 4.65-0.11 9.3-0.16 14-0.04 4.48-0.1 8.97-0.15 13.5-0.02 1.71-0.04 3.43-0.06 5.14-0.02 2.4-0.05 4.79-0.08 7.19-0.01 0.71-0.02 1.43-0.02 2.17-0.08 4.9-0.08 4.9-1.19 6.01h-5v-92zm72 2 1 4zm-68 9v80h1v-80h-1zm68 1v19h1v-19h-1zm0 39 1 4zm0 6 1 2zm0 16v5h1v-5h-1zm-1 16v2l2-1-2-1z" fill="#FCFDFF"/>
<path transform="translate(755 1175)" d="m0 0c0.91-0 1.83-0.01 2.77-0.01 12.2 0.02 12.2 0.02 17.4 4.13 1.26 0.58 2.54 1.14 3.81 1.69 6 2.94 10.3 7.94 13.1 14 3.1 9.14 3.27 18.9-1.02 27.7-3.59 5.92-7.94 9.21-13.8 12.6-0.99 0.67-1.98 1.32-3 2 6.1 10.1 13 19.5 20 29-0.66 0.67-1.32 1.32-2 2-2.26 0-3.87-0.24-6-1-1.54-1.6-1.54-1.6-2.99-3.68-0.54-0.76-1.08-1.52-1.63-2.3-0.56-0.81-1.12-1.62-1.69-2.45-0.58-0.82-1.15-1.64-1.75-2.48-1.13-1.62-2.27-3.24-3.4-4.87-1.3-1.87-2.62-3.72-3.95-5.56-4.59-6.39-4.59-6.39-4.59-8.66-0.89 0.04-1.77 0.07-2.68 0.1l-14.1 0.48c-2.05 0.07-4.09 0.14-6.14 0.21-1.85 0.06-1.85 0.06-3.73 0.12-2.77 0.08-5.55 0.09-8.32 0.09v30h-7v-92c22.1-1.16 22.1-1.16 30.8-1.12zm1.19 1.12v1h9v-1h-9zm7 5v1h5v-1h-5zm-32 1v51c5.55-0.08 11.1-0.16 16.8-0.24 2.59-0.03 2.59-0.03 5.23-0.05 9.92-0.17 18.2-1.27 26.9-6.45 5.48-5.98 7.42-13.1 7.28-21.1-0.69-7.05-3.39-12.1-8.21-17.2-0.61-0.68-1.21-1.37-1.84-2.09-7.21-6.36-21.8-4.14-30.9-4.03-5.04 0.04-10.1 0.08-15.2 0.12zm-4 83 1 2z" fill="#FAFBFD"/>
<path transform="translate(404,1176)" d="m0 0c2.97 0.49 2.97 0.49 6 1v42c0.99-0.49 0.99-0.49 2-1 1.88-0.09 3.76-0.12 5.64-0.11h3.58c1.28 0 2.56 0.01 3.88 0.01 1.31 0 2.62 0.01 3.96 0.01 3.48 0 6.95 0.01 10.4 0.02 3.54 0.01 7.09 0.02 10.6 0.02 6.96 0.01 13.9 0.03 20.9 0.05v-41c5-1 5-1 8 0 0.02 11.6 0.04 23.1 0.05 34.7 0.01 5.37 0.01 10.7 0.03 16.1 0.01 5.18 0.01 10.4 0.01 15.6 0.01 1.98 0.01 3.96 0.02 5.94v8.29c0.01 0.83 0.01 1.65 0.01 2.5-0.01 5.67-0.01 5.67-1.12 7.9h-7l-1-43c-29.7-0.49-29.7-0.49-60-1v44l-4-1c-0.99 0.49-0.99 0.49-2 1-1.62-3.25-1.14-6.81-1.13-10.4v-2.63c-0.01-2.87-0.01-5.75 0-8.62 0-1.99 0-3.98-0.01-5.97 0-4.17 0-8.35 0.01-12.5 0.01-5.36 0-10.7 0-16.1-0.01-4.11-0.01-8.22 0-12.3 0-1.98 0-3.95-0.01-5.93 0-2.76 0.01-5.52 0.01-8.28 0-0.82 0-1.65-0.01-2.5 0.03-5.64 0.03-5.64 1.14-6.75z" fill="#D7D8DA"/>
<path transform="translate(344 1175)" d="m0 0c2.75 2.22 3.92 5.02 5.33 8.17 0.46 1.01 0.46 1.01 0.94 2.03 0.99 2.15 1.97 4.31 2.94 6.46 0.65 1.4 1.29 2.8 1.94 4.2 10.3 22.4 10.3 22.4 14.7 33.7 2.81 7.16 6.08 14.1 9.26 21.1 0.66 1.45 1.31 2.9 1.97 4.35 1.59 3.51 3.19 7.02 4.78 10.5-2.65 1.46-3.89 2-7 2-1.28-2.64-2.55-5.29-3.81-7.94-0.36-0.73-0.71-1.47-1.08-2.23-0.53-1.1-0.53-1.1-1.07-2.23-0.47-1-0.47-1-0.96-2.02-1.58-3.78-2.78-7.7-4.08-11.6h-53l-3 9c-1.31 2.34-2.65 4.68-4 7-1.08 2.64-2.03 5.32-3 8-1 1-1 1-4.06 1.06-0.97-0.02-1.94-0.04-2.94-0.06-1.35-4.04-0.22-5.31 1.55-9.14 0.29-0.62 0.57-1.25 0.87-1.89 0.95-2.08 1.92-4.15 2.89-6.22 0.68-1.46 1.35-2.92 2.03-4.38 1.44-3.14 2.9-6.27 4.35-9.4 2.37-5.1 4.72-10.2 7.07-15.3 2.33-5.05 4.65-10.1 6.99-15.2 0.54-1.17 0.54-1.17 1.09-2.36 0.7-1.53 1.41-3.05 2.12-4.58 1.7-3.64 3.36-7.29 4.95-11 0.31-0.69 0.61-1.39 0.93-2.1 0.82-1.88 1.63-3.77 2.44-5.66 1.72-2.83 1.72-2.83 4.18-4.36 2.54-0.47 2.54-0.47 4.64-0.01zm-3.1 9.54c-4.68 9.98-9.31 20-13.9 30-0.67 1.47-1.34 2.94-2.02 4.41-0.99 2.17-1.98 4.33-2.97 6.5-0.3 0.65-0.6 1.31-0.91 1.98-1.36 2.99-2.59 5.86-3.22 9.1 1.49-0.5 1.49-0.5 3-1 1.46-0.09 2.92-0.12 4.38-0.11h2.67c0.95 0 1.89 0.01 2.87 0.01 0.97 0 1.94 0 2.95 0.01 3.1 0 6.21 0.01 9.32 0.03 2.11 0 4.21 0.01 6.32 0.01 5.16 0.01 10.3 0.03 15.5 0.05-5.51-12.2-11-24.5-16.6-36.8-0.63-1.4-1.27-2.81-1.9-4.21-1.51-3.35-3.03-6.69-4.54-10h-1z" fill="#DDDEE0"/>
<path transform="translate(914,1177)" d="m0 0c1.87 2.61 1.87 2.61 3.43 6.09 0.43 0.93 0.43 0.93 0.88 1.89 0.61 1.33 1.21 2.66 1.8 4 0.86 1.95 1.74 3.88 2.64 5.81 1.5 3.25 2.98 6.51 4.45 9.77 1.61 3.6 3.24 7.19 4.87 10.8 0.49 1.08 0.49 1.08 0.99 2.19 4.28 9.45 8.66 18.8 13 28.2 0.47 1.01 0.94 2.03 1.43 3.07 1.05 2.26 2.11 4.52 3.17 6.77 0.55 1.18 1.1 2.35 1.67 3.56 0.5 1.07 1.01 2.14 1.53 3.24 1.1 2.59 1.1 2.59 1.1 4.59l-8 1c-1.84-3.96-3.67-7.91-5.5-11.9-0.52-1.12-1.05-2.25-1.59-3.41-0.74-1.62-0.74-1.62-1.5-3.26-0.46-1-0.93-1.99-1.4-3.02-1.01-2.43-1.01-2.43-1.01-4.43l-52 1c-3.46 7.85-3.46 7.85-6.88 15.7-0.44 0.97-0.87 1.94-1.32 2.94-0.66 1.5-0.66 1.5-1.34 3.03-1.46 2.32-1.46 2.32-3.46 3.15-2.35 0.2-4.65 0.24-7 0.17 1.53-4.97 3.55-9.57 5.75-14.3 0.55-1.19 0.55-1.19 1.11-2.4 1.19-2.57 2.38-5.14 3.58-7.71 0.82-1.77 1.65-3.55 2.47-5.32 1.62-3.51 3.25-7.02 4.88-10.5 2.75-5.94 5.48-11.9 8.21-17.8 0.42-0.92 0.85-1.84 1.28-2.79 2.21-4.8 4.37-9.62 6.5-14.4 0.46-1.03 0.91-2.06 1.38-3.12 0.87-1.96 1.73-3.93 2.58-5.89 0.58-1.3 0.58-1.3 1.17-2.62 0.5-1.15 0.5-1.15 1.01-2.32 2.38-3.84 6.31-2.92 10.1-1.75zm-7 6v3zm2 2c-0.49 1.08-0.97 2.17-1.48 3.29-0.71 1.59-1.43 3.18-2.14 4.77-0.39 0.86-0.78 1.72-1.18 2.61-2.31 5.14-4.62 10.3-6.95 15.4-1.28 2.83-2.57 5.66-3.85 8.5-0.64 1.41-1.29 2.83-1.93 4.24-0.91 2.01-1.82 4.01-2.72 6.01-0.53 1.17-1.06 2.34-1.61 3.54-1.21 2.31-1.21 2.31-1.14 3.64 15.5-0.33 31-0.66 47-1-5.52-12.6-5.52-12.6-11.2-25.2-0.52-1.13-0.52-1.13-1.05-2.28-1.07-2.34-2.14-4.67-3.21-7-0.74-1.61-1.48-3.23-2.21-4.84-1.78-3.89-3.57-7.77-5.35-11.7h-1zm-4 1 1 2zm-1 2 1 3zm-1 3 1 2zm-1 2 1 2zm-2 4 1 2zm-1 2 1 3zm-1 3 1 2zm-1 2 1 2zm-3 6-1 6 2-3-1-3zm-4 9 1 2zm-1 2 1 2zm-1 2 1 4zm-3 7 1 2zm-1 2 1 2zm-5 11 1 2zm-1 2 1 3zm-1 3 1 2zm-3 6 1 3zm-1 3 1 2zm-1 2 1 2z" fill="#FCFDFF"/>
<path transform="translate(544,1176)" d="m0 0 8 1v55l2-3h2c1.49-1.31 2.92-2.69 4.32-4.09 0.87-0.87 1.73-1.74 2.62-2.63 0.91-0.92 1.81-1.83 2.75-2.78 0.88-0.89 1.77-1.77 2.68-2.69 3.78-3.8 7.52-7.61 11-11.7 4.5-5.23 9.33-10.1 14.2-15 1.1-1.11 2.19-2.23 3.27-3.35 1.58-1.64 3.18-3.25 4.78-4.87 0.72-0.76 0.72-0.76 1.46-1.53 1.38-1.38 1.38-1.38 3.93-3.34 2.21 0.32 2.21 0.32 4 1l2-2c0.99 0.33 1.98 0.66 3 1-0.79 0.77-1.57 1.55-2.38 2.34-1.06 1.06-2.12 2.11-3.18 3.16-0.52 0.51-1.03 1.01-1.56 1.53-2.87 2.85-5.6 5.76-8.24 8.83-3.92 4.53-8.13 8.74-12.4 13-0.75 0.75-1.51 1.5-2.29 2.27-1.39 1.39-2.78 2.77-4.17 4.15-1.6 1.58-3.2 3.17-4.79 4.77 3.81 8.58 11.5 15.6 17.8 22.5 3.11 3.5 6.03 7.14 8.98 10.8 2.98 3.6 6.13 7.03 9.32 10.4 1.97 2.31 3.47 4.65 4.95 7.29-7.11 0.71-7.11 0.71-11.1-2.46-0.97-1.1-1.92-2.22-2.85-3.35-0.51-0.59-1.02-1.18-1.55-1.79-1.53-1.78-3.02-3.58-4.51-5.4-0.79-0.95-1.57-1.91-2.38-2.89-1.45-1.78-2.9-3.56-4.33-5.35-3.01-3.63-6.19-7.08-9.39-10.5-3.4-3.67-6.68-7.4-9.9-11.2-3.22 1.39-5.03 2.92-7.25 5.62-1.8 2.19-3.52 4.19-5.71 5.98-4.54 3.88-6.55 6.64-7.26 12.6-0.13 2.25-0.22 4.5-0.28 6.75-0.06 1.16-0.12 2.31-0.18 3.5-0.14 2.84-0.25 5.67-0.32 8.5h-7v-92z" fill="#CFD0D2"/>
<path transform="translate(644 1175)" d="m0 0c1.11 0.02 2.22 0.03 3.37 0.05 1.2 0.03 2.41 0.05 3.65 0.07 1.85 0.04 1.85 0.04 3.74 0.07l9.84 0.18c2.01 0.04 4.03 0.08 6.04 0.11 3.85 0.06 7.71 0.13 11.6 0.21 1.8 0.03 1.8 0.03 3.64 0.06 1.12 0.02 2.23 0.04 3.38 0.07 0.98 0.01 1.96 0.03 2.98 0.05 2.47 0.17 2.47 0.17 5.47 1.17v5h-55v37c1.48-0.5 1.48-0.5 3-1 2.13-0.07 4.26-0.09 6.38-0.06 1.25 0 2.5 0.01 3.79 0.02 1.3 0.01 2.61 0.02 3.95 0.04 2.59 0.02 5.18 0.04 7.76 0.06 1.73 0.02 1.73 0.02 3.48 0.04 2.56 0.2 2.56 0.2 3.64-1.1 5.99-0.32 11.2 0.5 17 2v5c-0.56 0-1.11-0.01-1.69-0.01-5.79-0.02-11.6-0.04-17.4-0.05-2.16 0-4.33-0.01-6.49-0.02-3.1-0.01-6.21-0.02-9.31-0.02-0.97-0.01-1.94-0.01-2.94-0.02h-2.73-2.4c-2.27 0.04-2.27 0.04-5.07 1.12l-1 37 8-1c1.69-0.08 3.39-0.13 5.08-0.13 0.91 0 1.82-0.01 2.76-0.01h2.9 3.04c2.1 0 4.21 0 6.31 0.01 3.23 0 6.46 0 9.69-0.01h6.15 2.92c0.9 0 1.79 0 2.71 0.01h2.39c2.05 0.13 2.05 0.13 5.05 1.13v6h-63c-0.91-30.7-0.89-61.3 0-92 2.6-1.3 4.41-1.09 7.32-1.04zm31.7 43v1h7v-1h-7z" fill="#FBFCFE"/>
<path transform="translate(73,1176)" d="m0 0c-1.62 2.04-3.29 4.04-5 6h-2c-0.27 0.64-0.54 1.28-0.81 1.94-1.19 2.06-1.19 2.06-4.19 3.06l-2 4c-0.99 0.33-1.98 0.66-3 1-1.22 2.5-1.22 2.5-2 5h-2c-0.49 1.48-0.49 1.48-1 3-1.57 1.51-1.57 1.51-3.56 3.12-8.2 6.86-8.2 6.86-13.4 15.9 1.46 2.27 2.94 4.29 4.62 6.38 0.66 0.84 0.66 0.84 1.34 1.71 2.8 3.55 5.8 6.75 9.04 9.91 1.04 1.13 2.06 2.28 3.06 3.44 0.88 1.01 0.88 1.01 1.78 2.04 1.71 2 3.43 4 5.14 6.01 0.52 0.62 1.05 1.24 1.6 1.87 1.05 1.24 2.11 2.48 3.16 3.72 2.12 2.49 4.24 4.9 6.58 7.2 1.86 1.9 2.31 3.12 2.68 5.72-2.12 0.75-2.12 0.75-5 1-4.08-2.16-6.12-3.86-8-8l-2.5-2.5c-2.23-2.23-3.14-3.77-4.5-6.5-0.99-0.33-1.98-0.66-3-1-1.73-1.93-1.73-1.93-3.62-4.44-3.59-4.62-7.39-8.97-11.3-13.3-2.43-2.69-4.75-5.46-7.05-8.27-0.62 0.64-1.24 1.28-1.88 1.94-3.37 3.38-6.95 6.52-10.5 9.68-0.86 0.79-1.72 1.57-2.6 2.38-0.54 0.4-1.08 0.79-1.64 1.2-2.79 2.27-4.18 3.83-4.84 7.43-0.11 3.11-0.04 6.14 0.1 9.25 0.03 1.06 0.06 2.13 0.09 3.24 0.07 2.63 0.17 5.25 0.29 7.88-2.37 0.62-2.37 0.62-5 1-2.61-2.61-2.24-4.41-2.25-7.96 0.01-0.83 0.02-1.67 0.02-2.53v-2.66c0-2.91 0.02-5.82 0.03-8.73 0.01-2.02 0.01-4.03 0.01-6.05 0.01-5.31 0.03-10.6 0.05-15.9 0.02-5.41 0.03-10.8 0.04-16.2 0.02-10.6 0.06-21.3 0.1-31.9 1.67-0.04 3.33-0.04 5 0 2.03 2.03 1.43 6.09 1.56 8.88 0.04 0.84 0.09 1.68 0.13 2.55 0.64 14.8 0.39 29.7 0.31 44.6 2.29 0.23 2.29 0.23 4.31-2.19 0.89-0.93 1.78-1.85 2.69-2.81 2.57-2.57 5.15-5.14 7.75-7.69 2.27-2.1 2.27-2.1 3.25-4.31 1.48-0.49 1.48-0.49 3-1 1.72-1.66 1.72-1.66 3.38-3.69 0.61-0.72 1.22-1.44 1.85-2.19 1.47-1.76 2.94-3.53 4.39-5.31 2.33-2.76 4.81-5.28 7.38-7.81l8.25-8.19c0.73-0.72 1.46-1.45 2.22-2.19 0.69-0.69 1.39-1.39 2.11-2.1 0.63-0.63 1.26-1.26 1.92-1.9 1.59-1.56 1.59-1.56 2.5-3.62 4-2.17 6.63-2.02 11-1z" fill="#FAFBFD"/>
<path transform="translate(93,1175)" d="m0 0c1.91 0.81 3.52 1.52 5 3 0.09 1.77 0.11 3.54 0.1 5.31-0.01 1.14-0.01 2.27-0.01 3.44-0.01 1.24-0.02 2.48-0.03 3.75 0 1.27-0.01 2.54-0.01 3.84-0.01 4.76-0.04 9.52-0.06 14.3-0.02 4.65-0.04 9.3-0.05 14-0.01 1.22-0.02 2.44-0.03 3.71-0.33 12-0.33 12 4.09 22.7l1 3 3 2v2c1.65 0.71 3.32 1.36 5 2 0.69 0.26 1.39 0.53 2.1 0.8 10.1 3.46 22 3.85 31.8-0.69 5.82-3.54 8.62-9.45 10.6-15.8 2.85-13.9 1.76-29.3 2.03-43.4 0.05-2.14 0.09-4.28 0.13-6.42 0.11-5.17 0.21-10.4 0.31-15.5 3.75-1.12 3.75-1.12 6 0 0.09 8.27 0.16 16.5 0.21 24.8 0.02 3.84 0.05 7.68 0.09 11.5 0.05 3.72 0.07 7.43 0.08 11.2 0.01 1.41 0.02 2.82 0.04 4.22 0.16 10.5-0.57 20.7-7.17 29.2-5.93 6.06-11.7 8.55-20 9.7-2.19 0.13-2.19 0.13-3.22 1.36-11.5 1.01-22-0.66-31-8-0.99-0.43-0.99-0.43-1.99-0.86-2.64-1.5-3.6-3.17-5.13-5.76-0.5-0.82-1-1.64-1.51-2.48-3.37-7.14-3.76-14.2-3.99-22-0.04-1.07-0.08-2.13-0.12-3.23-0.28-9.07-0.36-18.1-0.38-27.2-0.01-1.3-0.01-2.61-0.02-3.95 0.01-6.58 0.04-13 1.14-19.6l2-1z" fill="#F9FAFC"/>
<path transform="translate(1381,1177)" d="m0 0c0.59 1.89 0.59 1.89 1.19 3.81 1.56 4.72 3.57 9.14 5.72 13.6 1.09 2.58 1.09 2.58 1.61 5.35 0.16 0.73 0.32 1.47 0.48 2.23l2 1c0.89 2.55 1.54 5.14 2.22 7.75 0.55 2.42 0.55 2.42 2.78 3.25 0.89 2.55 1.54 5.14 2.22 7.75 0.55 2.42 0.55 2.42 2.78 3.25 0.85 2.29 0.85 2.29 1.62 5.06 0.27 0.92 0.53 1.84 0.79 2.79 0.2 0.71 0.39 1.42 0.59 2.15h2c8 14.9 8 14.9 8 22l2 1c0.33 1.67 0.67 3.33 1 5l2 1v4h-6c-1.84-3.96-3.67-7.91-5.5-11.9-0.52-1.12-1.05-2.25-1.59-3.41-0.74-1.62-0.74-1.62-1.5-3.26-0.46-1-0.93-1.99-1.4-3.02-1.01-2.43-1.01-2.43-1.01-4.43-7.35 0.04-14.7 0.11-22 0.21-2.5 0.03-5.01 0.05-7.51 0.06-3.59 0.02-7.18 0.07-10.8 0.12h-3.4c-1.04 0.02-2.08 0.04-3.16 0.06-0.91 0.01-1.83 0.02-2.78 0.03-2.48 0.32-2.48 0.32-4.05 2.44-0.43 0.68-0.85 1.37-1.28 2.08-0.76 0.93-0.76 0.93-1.53 1.88-1.78 2.57-2.87 5.16-4.03 8.06-0.42 1.02-0.83 2.04-1.26 3.09-0.39 0.98-0.78 1.96-1.18 2.97-0.57 1.43-0.57 1.43-1.15 2.88-0.28 0.7-0.56 1.4-0.85 2.12h-7c1.4-4.45 3.11-8.63 5.06-12.9 0.31-0.66 0.61-1.33 0.92-2.01 1.01-2.19 2.01-4.37 3.02-6.56 0.71-1.54 1.41-3.08 2.12-4.62 2.29-4.98 4.58-9.96 6.88-14.9 0.4-0.87 0.8-1.74 1.21-2.63 3.59-7.77 7.17-15.5 10.8-23.3 0.36-0.78 0.73-1.57 1.1-2.38 0.7-1.51 1.4-3.02 2.1-4.54 1.49-3.21 2.95-6.42 4.35-9.67 0.43-1 0.87-2 1.31-3.03 0.36-0.85 0.71-1.7 1.08-2.57 2.38-4.07 6.13-2.66 10.1-1.87zm-6 7c-2.88 6.22-5.75 12.4-8.56 18.7-1.57 3.46-3.21 6.86-4.94 10.2-6.11 11.5-6.11 11.5-8.5 24.1 15.5-0.33 31-0.66 47-1l-8-18c-5.16-11.8-5.16-11.8-7.04-16.2-2.68-6.14-5.58-12-8.96-17.8h-1zm-27 58 1 2z" fill="#000002"/>
<path transform="translate(1217,1176)" d="m0 0c2.94 0.06 2.94 0.06 6 1 2.22 2.68 2.94 4.56 3.44 8 0.33 3.1 0.33 3.1 2.5 5.31 2.79 3.64 3.32 7.24 4.06 11.7h2c0.19 0.6 0.39 1.21 0.59 1.83 0.26 0.8 0.52 1.6 0.79 2.42 0.25 0.79 0.51 1.58 0.77 2.39 0.8 2.23 1.76 4.25 2.85 6.36 1 2.33 2 4.67 3 7 0.35 0.68 0.7 1.36 1.06 2.06 1.24 2.57 2.08 5.23 2.94 7.94h2c2.73 5.65 5.16 10.7 6 17 0.91 2.71 1.95 5.34 3 8h2c0.34 1.46 0.67 2.92 1 4.38 0.28 1.21 0.28 1.21 0.56 2.46 0.44 2.16 0.44 2.16 0.44 4.16h-5c-0.33-0.72-0.66-1.44-0.99-2.19-1.48-3.25-2.97-6.5-4.45-9.75-0.51-1.13-1.03-2.27-1.56-3.44-0.5-1.08-0.99-2.16-1.5-3.27-0.45-1-0.91-2-1.38-3.03-0.92-2.23-0.92-2.23-2.12-3.32-1.67-0.12-3.35-0.17-5.02-0.19-1.07-0.02-2.15-0.03-3.25-0.05-4.9-0.05-9.81-0.09-14.7-0.11-2.59-0.02-5.19-0.04-7.78-0.08-3.72-0.06-7.44-0.08-11.2-0.09-1.74-0.04-1.74-0.04-3.52-0.07-1.08 0-2.16 0-3.27 0.01-1.42-0.02-1.42-0.02-2.88-0.03-2.63 0.4-2.63 0.4-4.17 3-1.14 2.41-2.21 4.81-3.17 7.3-0.33 0.85-0.67 1.71-1.01 2.6-0.35 0.89-0.69 1.79-1.05 2.71-0.75 1.88-1.5 3.75-2.25 5.62-0.34 0.84-0.67 1.68-1.02 2.54-0.24 0.61-0.48 1.22-0.73 1.84h-6c1.5-4.83 3.43-9.32 5.57-13.9 0.35-0.76 0.71-1.52 1.07-2.31 1.16-2.5 2.32-4.99 3.48-7.49 1.64-3.52 3.27-7.03 4.9-10.6 0.62-1.34 0.62-1.34 1.25-2.71 2.79-6.01 5.56-12 8.3-18.1 0.36-0.79 0.73-1.58 1.1-2.4 1.38-3.03 2.76-6.07 4.14-9.1 10.2-22.5 10.2-22.5 13.2-25.5zm0 8c-6.54 14-6.54 14-12.8 28.2-0.31 0.73-0.62 1.46-0.94 2.21-0.63 1.45-1.24 2.91-1.85 4.36-2.19 5.11-2.19 5.11-4.41 6.22-0.69 2.55-0.69 2.55-1.12 5.5-0.17 1-0.34 2-0.51 3.03-0.39 2.22-0.39 2.22-0.37 3.47 2.33 0.04 4.67 0.04 7 0l1-1c2.96-0.09 5.89-0.12 8.85-0.1 1.33 0 1.33 0 2.68 0.01 2.85 0 5.69 0.01 8.53 0.03 1.93 0 3.85 0.01 5.77 0.01 4.72 0.01 9.45 0.03 14.2 0.05-4.96-11.8-10.1-23.6-15.4-35.2-0.62-1.36-1.24-2.72-1.86-4.09-0.88-1.93-1.77-3.85-2.66-5.78-0.77-1.68-0.77-1.68-1.56-3.39-1.28-2.83-1.28-2.83-4.48-3.53zm35 60 1 2z" fill="#000002"/>
<path transform="translate(713,697)" d="m0 0h2c1.44 2.69 2.88 5.37 4.31 8.06 0.41 0.75 0.81 1.51 1.23 2.28 3.46 6.5 6.28 13.1 8.9 20 2.43 6.37 4.91 12.7 7.52 19 2.34 5.69 4.34 11.5 6.25 17.3 1.05 3.18 2.12 6.34 3.35 9.45 1.85 4.78 3.12 9.74 4.48 14.7 0.88 3.19 0.88 3.19 2.02 5.88 0.97 2.47 1.48 4.78 1.94 7.39 0.67 3.56 1.56 6.66 3 10 1.63 5.32 2.83 10.7 3.94 16.1 1.17 5.69 2.39 11.4 3.75 17 1.17 4.97 1.8 9.81 2.31 14.9l1 1c3.43 14.7 4.66 30.1 6.19 45.1 0.12 1.24 0.12 1.24 0.25 2.5 0.25 2.42 0.49 4.84 0.73 7.26 0.1 1.05 0.1 1.05 0.21 2.11 1.22 12.7 1.77 25.2 1.75 38 0 1.49 0 2.97 0.01 4.46 0 3.08 0 6.17-0.01 9.26-0.01 3.9 0 7.81 0 11.7 0.01 3.06 0.01 6.12 0 9.18 0 1.44 0 2.88 0.01 4.31 0.02 15.2-0.89 30.1-2.58 45.2-0.13 1.2-0.26 2.4-0.4 3.63-0.38 3.44-0.77 6.87-1.16 10.3-0.1 0.93-0.21 1.85-0.32 2.81-1.48 13-1.48 13-2.68 14.2-0.23 1.85-0.41 3.7-0.56 5.56-0.09 1.01-0.17 2.03-0.26 3.07-0.09 1.17-0.09 1.17-0.18 2.37h-4c0.12-0.83 0.24-1.65 0.37-2.51 4.54-31.4 7.81-62.8 8.63-94.5 0.02-0.83 0.05-1.65 0.07-2.51 1.67-67.7-9.72-136-30.1-200-0.31-0.99-0.61-1.97-0.93-2.99-7.48-23.9-17-47-27.4-69.7-0.48-1.06-0.96-2.11-1.46-3.2-0.42-0.92-0.85-1.84-1.29-2.8-0.91-2.34-0.91-2.34-0.91-5.34z" fill="#000002"/>
<path transform="translate(850,1176)" d="m0 0c1.16 2.32 1.13 3.65 1.13 6.24 0 0.88 0.01 1.76 0.01 2.67 0 0.96-0.01 1.92-0.01 2.91s0.01 1.99 0.01 3.01c0 3.25-0.01 6.49-0.02 9.73v3.32c-0.02 7.37-0.06 14.8-0.12 22.1-0.01 0.79-0.01 1.59-0.02 2.4-0.04 4.16-0.11 8.32-0.23 12.5-0.01 0.92-0.03 1.84-0.04 2.79-0.29 7.6-2.19 14.6-7.4 20.3-6.07 3.78-12.1 5.83-19.3 5.06-2.33-0.68-4.59-1.45-6.87-2.29-2.26-0.84-2.26-0.84-5.32-1.09-3.96-0.88-5.97-2.78-8.81-5.62-1.38-2.81-1.38-2.81-2-5 1.38-1.5 1.38-1.5 3-3h2c0.68 0.91 1.36 1.82 2.06 2.75 3.31 4.03 6.85 6.1 11.9 7.25 6.53 0.17 13.1-0.04 19-3 4.82-8.38 4.33-19.1 4.41-28.4 0.02-1.38 0.04-2.76 0.06-4.13 0.05-3.6 0.09-7.19 0.13-10.8 0.04-3.68 0.09-7.36 0.14-11 0.1-7.2 0.18-14.4 0.26-21.6l-35-1v-5c6.04-1.36 12.1-1.4 18.2-1.62 1.19-0.06 2.38-0.11 3.61-0.16 6.49-0.25 12.7-0.34 19.1 0.78zm-3 15 1 2zm0 33 1 2zm0 19 1 2zm-2 10-1 4 2-1-1-3z" fill="#F5F6F8"/>
<path transform="translate(1097,1176)" d="m0 0c3.73-0.29 5.6-0.38 9 1 3.48 3.9 5.87 8.39 8.38 12.9 0.73 1.28 1.47 2.56 2.21 3.84 1.48 2.54 2.94 5.1 4.38 7.66 2.68 4.73 5.5 9.37 8.34 14 0.43 0.7 0.85 1.41 1.29 2.14 2.24 3.7 4.61 7.1 7.4 10.4 5.57-8.72 11.1-17.5 16.4-26.3 0.38-0.62 0.76-1.25 1.14-1.89 1.89-3.12 3.76-6.23 5.63-9.36l2.1-3.48c0.62-1.03 1.23-2.06 1.87-3.11 1.79-2.8 3.59-5.37 5.82-7.84 2.75-0.31 2.75-0.31 5 0-1.49 3.13-3.23 5.98-5.12 8.88-4.22 6.56-8.06 13.3-11.9 20.1h-2c-0.27 0.89-0.54 1.77-0.81 2.69-1.12 3.11-2.41 5.54-4.19 8.31-0.52 0.93-1.03 1.86-1.56 2.81-0.48 0.72-0.95 1.45-1.44 2.19h-2c-1.42 4.8-1.42 4.8-2.5 9.69-0.5 2.31-0.5 2.31-1.51 4.02-1.35 3.12-1.3 5.81-1.37 9.21-0.02 0.66-0.03 1.31-0.05 1.99-0.05 2.09-0.09 4.19-0.13 6.28-0.05 2.1-0.09 4.2-0.15 6.31l-0.12 5.7c-0.17 2.8-0.17 2.8-1.17 3.8-2 0.04-4 0.04-6 0 0.03-0.83 0.07-1.67 0.1-2.53 0.53-17.9-0.22-31-11.2-45.8-3.3-4.62-6.17-9.52-9.1-14.4-1.62-2.68-3.27-5.34-4.92-8.01-0.63-1.01-1.25-2.02-1.89-3.07-1.41-2.27-2.82-4.53-4.23-6.79-0.37-0.59-0.75-1.18-1.13-1.8-1.04-1.66-2.09-3.33-3.13-4.99-1.48-2.6-1.48-2.6-1.48-4.6zm42 60v31h1v-31h-1z" fill="#000002"/>
<path transform="translate(1323 1175)" d="m0 0c0.81 0.04 1.62 0.08 2.46 0.12 3.23 0.18 6.02 0.41 9.1 1.44v4c-11.6 1.45-23.3 1.57-35 2l1 85h-7l-1-85c-12.5-0.83-12.5-0.83-25-1.06-1.03 0.01-1.03 0.01-2.09 0.01-1.64 0.02-3.27 0.03-4.91 0.05v-5c6.58-1.13 13.2-1.33 19.8-1.56 1.2-0.04 2.4-0.08 3.64-0.13 13-0.42 26-0.51 39 0.13z" fill="#000002"/>
<path transform="translate(196,1176)" d="m0 0c2.97 0.49 2.97 0.49 6 1l1 84c16-0.04 16-0.04 32-0.09 2 0 4.01-0.01 6.01-0.01 1.04 0 2.08-0.01 3.16-0.01h3.01c0.87-0.01 1.73-0.01 2.62-0.01 2.22 0.12 2.22 0.12 5.22 1.12v6c-7.58 0.05-15.2 0.09-22.7 0.11-2.58 0.01-5.16 0.02-7.74 0.04-3.7 0.03-7.41 0.04-11.1 0.05-1.15 0.01-2.3 0.02-3.49 0.03h-3.27c-0.95 0-1.89 0.01-2.87 0.01-3.16-0.27-5.81-1.14-8.77-2.24-0.02-11.6-0.04-23.2-0.05-34.8-0.01-5.38-0.01-10.8-0.03-16.1-0.01-5.19-0.01-10.4-0.01-15.6-0.01-1.98-0.01-3.97-0.02-5.95v-8.31c-0.01-0.83-0.01-1.65-0.01-2.51 0.01-5.66 0.01-5.66 1.12-6.77z" fill="#FBFCFE"/>
<path transform="translate(272,1176)" d="m0 0 8 1v90l-8 1v-92z" fill="#DBDCDE"/>
<path transform="translate(1332,1332)" d="m0 0h7v102h-7v-102z" fill="#000002"/>
<path transform="translate(446,817)" d="m0 0c3.91 2.61 5.11 5.86 7 10 0.37 0.81 0.74 1.61 1.12 2.45 0.82 1.8 1.64 3.61 2.45 5.41 1.94 4.27 3.93 8.51 5.93 12.8 2.91 6.2 5.58 12.3 7.5 18.9 1.06 3.54 2.11 7 3.62 10.4 1.47 3.32 2.42 6.62 3.38 10.1 0.32 0.91 0.64 1.81 0.96 2.75 1.53 4.78 2.34 9.66 3.26 14.6 0.69 3.57 0.69 3.57 1.78 6.58 1.27 3.9 1.92 7.79 2.56 11.8 0.2 1.19 0.2 1.19 0.4 2.41 0.8 5.01 1.46 10 1.83 15.1 0.12 1.86 0.12 1.86 1.21 3.75 1.26 7.85 1.22 15.9 1.31 23.8 0.01 0.65 0.01 1.3 0.02 1.98 0.06 4.95 0.09 9.9 0.11 14.8 0 0.73 0 1.45 0.01 2.2 0.11 26 0.13 53.3-8.45 78.2-0.38 1.36-0.73 2.72-1.07 4.09-0.17 0.7-0.35 1.4-0.53 2.12-0.17 0.72-0.35 1.43-0.52 2.17-0.19 0.73-0.37 1.47-0.56 2.23-0.44 1.79-0.88 3.59-1.32 5.39-0.99-0.33-1.98-0.66-3-1 0.45-1.48 0.45-1.48 0.92-2.99 25-84.2 12-178-28.8-255-1.11-2.41-1.11-2.41-1.11-5.41z" fill="#000002"/>
<path transform="translate(1353,1234)" d="m0 0 1 2c2.53 0.66 2.53 0.66 5 1l1-2 1 1c1.33 0.1 2.67 0.13 4.01 0.13 0.85 0 1.71 0.01 2.58 0.01 0.93 0 1.85-0.01 2.81-0.01 1.42 0 1.42 0 2.86 0.01 2.01 0 4.02-0.01 6.02-0.01 3.07 0 6.15 0 9.22 0.01 1.95 0 3.89-0.01 5.84-0.01 1.38 0.01 1.38 0.01 2.79 0.01 1.29-0.01 1.29-0.01 2.6-0.01h2.28c2.2-0.06 2.2-0.06 4.99-1.13 8 14.9 8 14.9 8 22l2 1c0.33 1.67 0.67 3.33 1 5l2 1v4h-6c-1.84-3.96-3.67-7.91-5.5-11.9-0.52-1.12-1.05-2.25-1.59-3.41-0.5-1.08-0.99-2.16-1.5-3.26-0.46-1-0.93-1.99-1.4-3.02-1.01-2.43-1.01-2.43-1.01-4.43-7.35 0.04-14.7 0.11-22 0.21-2.5 0.03-5.01 0.05-7.51 0.06-3.59 0.02-7.18 0.07-10.8 0.12h-3.4c-1.04 0.02-2.08 0.04-3.16 0.06-1.37 0.02-1.37 0.02-2.78 0.03-2.51 0.32-2.51 0.32-4.15 2.55-0.39 0.65-0.78 1.3-1.18 1.97 0.61-4.86 2.73-8.74 5-13z" fill="#FCFDFF"/>
<path transform="translate(1248,1232)" d="m0 0c3.67 5.51 6.04 10.4 7 17 0.91 2.71 1.95 5.34 3 8h2c0.34 1.46 0.67 2.92 1 4.38 0.19 0.81 0.37 1.62 0.56 2.46 0.44 2.16 0.44 2.16 0.44 4.16h-5c-0.49-1.08-0.49-1.08-0.99-2.19-1.48-3.25-2.97-6.5-4.45-9.75-0.51-1.13-1.03-2.27-1.56-3.44-0.5-1.08-0.99-2.16-1.5-3.27-0.68-1.5-0.68-1.5-1.38-3.03-0.92-2.23-0.92-2.23-2.12-3.32-1.66-0.09-3.32-0.12-4.98-0.11h-3.21c-1.16 0-2.31 0.01-3.5 0.01-1.76 0-1.76 0-3.56 0.01-3.77 0-7.54 0.01-11.3 0.03-2.55 0-5.1 0.01-7.65 0.01-6.26 0.01-12.5 0.03-18.8 0.05v-6l4-2v1c2.97 0.49 2.97 0.49 6 1l1-2h44l1-3zm4 12 1 2z" fill="#FCFDFF"/>
<path transform="translate(1030,546)" d="m0 0c0.99 0.5 0.99 0.5 2 1-5.07 3.49-10.2 6.71-15.6 9.64-3.75 2.13-7.33 4.52-10.9 6.91-2.48 1.45-2.48 1.45-4.74 1.97-0.58 0.16-1.15 0.32-1.74 0.48-0.5 1.49-0.5 1.49-1 3-3.06 1.19-3.06 1.19-6 2v2c-1.79 1.44-1.79 1.44-4.19 3-0.77 0.52-1.55 1.03-2.35 1.56-2.46 1.44-2.46 1.44-5.2 2.44-1.12 0.5-1.12 0.5-2.26 1l-1 3c-1.66 0.97-3.33 1.93-5.03 2.84-3.37 1.98-6.18 4.57-9.09 7.16-1.19 1.04-2.38 2.08-3.58 3.12-0.56 0.5-1.12 0.99-1.7 1.5-2.15 1.86-4.38 3.61-6.6 5.38-2.06 1.82-4.1 3.66-6.13 5.51-1.87 1.49-1.87 1.49-4.87 2.49-1.51 1.49-1.51 1.49-3 3.38-3.44 4.06-7.14 7.8-10.9 11.5-2.77 2.74-5.4 5.55-7.94 8.52-2.47 2.89-4.95 5.39-8.12 7.56h-2c-0.11 0.6-0.23 1.19-0.34 1.81-0.89 2.95-2.74 4.79-4.78 7.05-3.05 3.47-5.87 7.15-8.73 10.8-2.01 2.21-3.41 3.29-6.15 4.36 0-4.83 0.83-5.36 4.06-8.75 0.83-0.88 1.66-1.76 2.51-2.67 0.8-0.85 1.6-1.7 2.43-2.58 1.17-1.33 2.34-2.66 3.5-4 0.57-0.65 1.14-1.31 1.73-1.98 1.19-1.35 2.36-2.71 3.54-4.07 5.36-6.11 11-11.9 16.8-17.6 0.81-0.81 1.61-1.61 2.44-2.45 4.84-4.82 9.81-9.41 15-13.9 1.16-1.02 2.31-2.04 3.46-3.07 9.19-8.1 18.7-15.6 28.5-22.9 0.73-0.54 1.45-1.08 2.2-1.64 14.9-11 30.4-20.9 46.4-30.2 0.91-0.54 1.82-1.07 2.76-1.62 0.85-0.48 1.69-0.97 2.56-1.46 0.75-0.44 1.5-0.87 2.27-1.31 0.91-0.4 0.91-0.4 1.85-0.8z" fill="#000002"/>
<path transform="translate(1236,1332)" d="m0 0h5c0 1.22 0 2.44-0.01 3.69-0.02 11.5-0.03 23-0.04 34.4-0.01 5.9-0.01 11.8-0.03 17.7-0.01 5.69-0.01 11.4-0.01 17.1-0.01 2.17-0.01 4.34-0.02 6.52v9.12c-0.01 0.9-0.01 1.8-0.01 2.73v2.52 2.18c0.13 2.11 0.54 3.99 1.12 6.02h-6l-0.39-26.8c-0.06-4.15-0.12-8.3-0.18-12.5-0.24-15.9-0.47-31.9-0.52-47.8-0.01-1.06-0.02-2.13-0.02-3.22 0-0.96 0-1.93-0.01-2.92v-2.52c0.12-2.2 0.51-4.12 1.12-6.24z" fill="#000002"/>
<path transform="translate(1323 1175)" d="m0 0c0.81 0.04 1.62 0.08 2.46 0.12 3.23 0.18 6.02 0.41 9.1 1.44v4c-18.7 2.64-37.7 2.09-56.5 1.26-5.84-0.26-11.7-0.32-17.5-0.26v-5c6.58-1.13 13.2-1.33 19.8-1.56 1.2-0.04 2.4-0.08 3.64-0.13 13-0.42 26-0.51 39 0.13z" fill="#FCFDFF"/>
<path transform="translate(955,1332)" d="m0 0 4 1c-8.1 19.6-8.1 19.6-12 26-0.67 1.66-1.34 3.33-2 5-0.76 1.71-1.53 3.42-2.31 5.12-0.44 0.95-0.87 1.9-1.31 2.88-0.46 0.99-0.91 1.98-1.38 3-0.94 2.06-1.88 4.12-2.81 6.19-0.73 1.6-1.46 3.21-2.19 4.81h-2c-0.09 1.39-0.09 1.39-0.19 2.81-0.8 5.5-3.42 10.2-5.81 15.2-1.17 2.5-2.34 5-3.5 7.5-0.6 1.28-1.19 2.55-1.79 3.83-0.43 0.93-0.43 0.93-0.87 1.87-0.79 1.69-1.58 3.38-2.36 5.06-0.45 0.97-0.9 1.93-1.36 2.93-0.38 0.84-0.77 1.68-1.17 2.54-0.87 2.08-1.47 4.07-1.95 6.27l-5-1c6.4-15 13.1-29.8 19.9-44.6 3.3-7.18 6.58-14.4 9.79-21.6 0.29-0.65 0.58-1.3 0.88-1.97 1.35-3.02 2.69-6.04 4.03-9.07 3.57-8.04 7.43-15.9 11.4-23.8z" fill="#000002"/>
<path transform="translate(1032,1332)" d="m0 0h5v102h-5v-102z" fill="#000002"/>
<path transform="translate(1357,1367)" d="m0 0c4.63 3.61 8.26 7.36 11.6 12.2 1.34 1.8 2.77 3.25 4.36 4.83 4.11 4.84 8.13 9.75 11.9 14.9 3.6 4.89 7.59 9.45 11.5 14.1 2.25 2.65 4.44 5.33 6.59 8.05 0.63 0.79 1.27 1.58 1.92 2.39 0.91 1.14 0.91 1.14 1.83 2.3 0.92 1.15 0.92 1.15 1.86 2.32 1.39 1.99 1.39 1.99 1.39 3.99 0.99 0.33 1.98 0.66 3 1v1c-2.69 0.31-2.69 0.31-6 0-3.71-3.34-6.92-7.12-10.1-10.9-0.72-0.84-0.72-0.84-1.45-1.71-3.8-4.53-7.46-9.16-11.1-13.8-3.76-4.82-7.63-9.55-11.5-14.3-0.59-0.72-1.19-1.45-1.8-2.19-2.51-3.06-5.03-6.1-7.64-9.08-4.33-5.05-6.37-8.23-6.37-15z" fill="#000002"/>
<path transform="translate(1168,1347)" d="m0 0c2.47 0.49 2.47 0.49 5 1 1.02 3.36 1.1 6.38 1.06 9.89-0.01 1.22-0.01 2.45-0.02 3.71-0.01 0.66-0.02 1.33-0.02 2.01-0.14 16 0.13 32 0.48 48 0.02 1.12 0.05 2.23 0.07 3.38 0.14 6.35 0.28 12.7 0.43 19.1h-6l-1-87z" fill="#000002"/>
<path transform="translate(911,1177)" d="m0 0h-2c-0.37 1.22-0.74 2.43-1.12 3.69-2.12 6.34-5.02 12.3-7.88 18.3-1.09 2.33-2.17 4.67-3.25 7-0.72 1.55-0.72 1.55-1.45 3.12-1.18 2.61-2.25 5.23-3.3 7.88-2.36 5.38-4.82 10.7-7.5 15.9-2.34 4.63-4.34 9.36-6.31 14.2-2.42 5.88-4.92 11.4-8.19 16.9-0.7 2.19-0.7 2.19-1 4h-5c1.53-4.97 3.55-9.57 5.75-14.3 0.55-1.19 0.55-1.19 1.11-2.4 1.19-2.57 2.38-5.14 3.58-7.71 0.82-1.77 1.65-3.55 2.47-5.32 1.62-3.51 3.25-7.02 4.88-10.5 2.75-5.94 5.48-11.9 8.21-17.8 0.42-0.92 0.85-1.84 1.28-2.79 2.21-4.8 4.37-9.62 6.5-14.4 0.46-1.03 0.91-2.06 1.38-3.12 0.87-1.96 1.73-3.93 2.58-5.89 0.58-1.3 0.58-1.3 1.17-2.62 0.5-1.15 0.5-1.15 1.01-2.32 1.96-3.18 3.78-2.85 7.08-1.75z" fill="#000002"/>
<path transform="translate(1403,1332)" d="m0 0h7l-1 65c-4.23-2.11-5.09-2.86-7-7-0.32-2.8-0.32-2.8-0.25-5.89 0.02-1.16 0.04-2.32 0.06-3.52 0.04-1.24 0.08-2.49 0.12-3.77 0.02-1.28 0.05-2.56 0.08-3.88 0.07-3.39 0.15-6.78 0.25-10.2 0.09-3.47 0.16-6.93 0.24-10.4 0.15-6.79 0.32-13.6 0.5-20.4z" fill="#000002"/>
<path transform="translate(1378,1177)" d="m0 0h3c0.39 1.26 0.78 2.52 1.19 3.81 1.56 4.72 3.57 9.14 5.72 13.6 1.09 2.58 1.09 2.58 1.61 5.35 0.16 0.73 0.32 1.47 0.48 2.23l2 1c0.89 2.55 1.54 5.14 2.22 7.75 0.55 2.42 0.55 2.42 2.78 3.25 0.89 2.55 1.54 5.14 2.22 7.75 0.55 2.42 0.55 2.42 2.78 3.25 0.89 1.71 0.89 1.71 1.69 3.81 0.27 0.69 0.54 1.38 0.82 2.08 0.56 2.4 0.26 3.8-0.51 6.11h-4c-15.4-32.6-15.4-32.6-22.5-48.6-0.82-1.83-1.64-3.66-2.54-5.45 0.93-2.03 1.93-4.04 3-6z" fill="#020304"/>
<path transform="translate(1006,1176)" d="m0 0 4 1 1 91h-5v-92z" fill="#000002"/>
<path transform="translate(1073,1177)" d="m0 0h6c-0.01 0.88-0.03 1.76-0.04 2.66-0.12 8.29-0.23 16.6-0.35 24.8l-0.18 12.8-0.18 12.3c-0.02 1.57-0.04 3.14-0.06 4.7-0.04 2.2-0.07 4.4-0.1 6.59-0.02 1.25-0.03 2.51-0.05 3.79-0.03 2.77-0.05 5.53-0.04 8.3-2.96-1.56-2.96-1.56-6-4-0.68-3.21-0.68-3.21-0.59-7.06 0.01-0.71 0.02-1.41 0.03-2.13 0.03-2.32 0.11-4.63 0.19-6.95 0.04-1.61 0.07-3.22 0.1-4.83 0.08-4.23 0.2-8.45 0.32-12.7 0.12-4.32 0.21-8.63 0.3-13 0.18-8.47 0.4-16.9 0.65-25.4z" fill="#000002"/>
<path transform="translate(1017,1190)" d="m0 0c5.12 5 9.53 10.4 14 16 0.71 0.87 1.41 1.75 2.14 2.64 0.63 0.8 1.27 1.6 1.92 2.42 0.57 0.72 1.14 1.43 1.73 2.16 1.21 1.78 1.21 1.78 1.21 3.78 0.99 0.33 1.98 0.66 3 1 1.06 1.63 2.05 3.3 3 5 0.56 0.72 1.11 1.44 1.69 2.19 1.31 1.81 1.31 1.81 1.31 3.81h2v2h2c0.15 0.96 0.15 0.96 0.31 1.94 0.23 0.68 0.46 1.36 0.69 2.06 0.99 0.33 1.98 0.66 3 1 0.68 1.32 1.35 2.66 2 4 1.94 2.07 3.99 3.99 6.06 5.94 2.47 2.62 4.94 5.33 4.94 9.06h2c1.38 1.96 2.71 3.97 4 6 0.58 0.74 1.15 1.48 1.75 2.25 1.25 1.75 1.25 1.75 1.25 3.75 0.99 0.49 0.99 0.49 2 1-2.99 0.3-4.47 0.41-6.89-1.48-4.83-5.76-9.22-11.8-13.6-17.9-6.31-8.96-13.2-17.5-20.1-26-6.62-8.26-13.1-16.6-19.3-25.2-1.13-1.54-1.13-1.54-3.16-2.39l1-5z" fill="#000002"/>
<path transform="translate(1055,1367)" d="m0 0c7.84 6.45 7.84 6.45 10 10v2c0.64 0.25 1.28 0.49 1.94 0.75 2.06 1.25 2.06 1.25 2.81 3.37 0.12 0.93 0.12 0.93 0.25 1.88h2c1.34 1.76 2.67 3.53 3.96 5.32 2.55 3.35 5.28 6.51 8.04 9.68 3.81 4.4 7.52 8.81 10.9 13.6 1.16 1.61 1.16 1.61 3.09 3.45 0.95 1.24 1.89 2.49 2.81 3.75 1.94 2.62 3.93 5.16 6.07 7.63 2.12 2.62 2.12 2.62 2.12 4.62 0.99 0.49 0.99 0.49 2 1-4.39-0.17-6.42-0.43-9.6-3.56-0.84-1.13-1.66-2.28-2.46-3.44-0.95-1.28-1.89-2.56-2.84-3.83-0.5-0.68-1-1.36-1.51-2.06-2.78-3.7-5.75-7.24-8.71-10.8-1.2-1.45-2.4-2.89-3.59-4.34-1.1-1.32-2.19-2.65-3.29-3.97-6.8-8.23-13.4-16.6-20-25-0.6-0.75-1.2-1.51-1.82-2.29-1.18-1.71-1.18-1.71-1.18-3.71l-2-1 1-3z" fill="#000002"/>
<path transform="translate(1221,1177)" d="m0 0c3 1 3 1 4.12 2.69 0.88 2.31 0.88 2.31 1.26 5.25 0.39 3.15 0.39 3.15 2.56 5.37 2.79 3.64 3.32 7.24 4.06 11.7h2c0.19 0.6 0.39 1.21 0.59 1.83 0.26 0.8 0.52 1.6 0.79 2.42 0.25 0.79 0.51 1.58 0.77 2.39 0.8 2.23 1.76 4.25 2.85 6.36 1 2.33 2 4.67 3 7 0.35 0.68 0.7 1.36 1.06 2.06 1.97 4.07 2.94 7.41 2.94 11.9-2.25-0.01-2.25-0.01-5-1-1.61-2.62-2.83-5-4.03-7.8-0.54-1.2-0.54-1.2-1.09-2.41-1.14-2.55-2.26-5.11-3.38-7.67-0.75-1.68-1.51-3.37-2.26-5.05-1.45-3.23-2.89-6.47-4.31-9.72-1.99-4.5-4.04-8.97-6.14-13.4-0.79-1.93-0.79-1.93-0.79-3.93-0.99-0.33-1.98-0.66-3-1l4-7z" fill="#111214"/>
<path transform="translate(642,24)" d="m0 0 2 1c-0.45 0.44-0.91 0.88-1.37 1.33-2.1 2.02-4.18 4.07-6.25 6.11-1.07 1.03-1.07 1.03-2.17 2.08-4.34 4.29-7.83 8.58-11 13.8-0.4 0.55-0.8 1.1-1.21 1.67h-2c-0.25 0.83-0.5 1.66-0.75 2.52-1.41 3.94-3.24 7.48-5.19 11.2-2.84 5.52-5.11 10.8-6.49 16.9-0.57 2.43-0.57 2.43-1.57 5.22-1.19 3.82-1.65 7.5-2.06 11.5-0.82 7.5-0.82 7.5-1.94 9.75-0.1 1.85-0.13 3.71-0.12 5.56-0.01 0.99-0.01 1.99-0.01 3.01-0.14 2.38-0.14 2.38 1.13 3.43 0.27 1.41 0.49 2.84 0.68 4.26 0.13 0.87 0.25 1.75 0.38 2.64 0.25 1.84 0.5 3.68 0.75 5.51 0.67 4.74 1.5 9.08 3.19 13.6 0.2 0.68 0.4 1.36 0.61 2.06 5.09 17 15.6 32.8 28.4 44.9l-1 2c-6.87-6.49-12.8-13.1-18-21-0.6-0.89-1.19-1.78-1.8-2.7-8.24-13.1-12.8-28.1-15.2-43.3-0.13-0.74-0.26-1.48-0.39-2.25-3.7-23.7 2.79-48.2 14.4-68.8 0.54-0.97 1.09-1.95 1.65-2.95 6.53-10.9 15.3-21.2 25.4-29z" fill="#000002"/>
<path transform="translate(1103,1332)" d="m0 0h6l-1 66c-6-4-6-4-6.68-6.83 0.03-1.1 0.06-2.19 0.09-3.32 0.02-1.24 0.04-2.48 0.06-3.76 0.06-1.35 0.11-2.69 0.16-4.04 0.04-1.39 0.07-2.77 0.1-4.16 0.08-3.63 0.2-7.27 0.32-10.9 0.12-3.71 0.21-7.42 0.3-11.1 0.18-7.28 0.4-14.6 0.65-21.8z" fill="#000002"/>
<path transform="translate(567,503)" d="m0 0c3.34 1.17 5.77 2.19 8 5v2c0.64 0.27 1.28 0.54 1.94 0.81 2.06 1.19 2.06 1.19 3.06 4.19 1.32 0.69 2.66 1.36 4 2 5.9 4.78 11.3 9.99 16 16v2l4 2c-0.61 4.86-2.73 8.74-5 13h-2c-0.25 1.03-0.5 2.06-0.75 3.12-1.08 3.82-2.95 6.65-5.25 9.88-0.69 1.32-1.38 2.65-2 4h-2c-0.37 1.26-0.74 2.52-1.12 3.81-1.6 4.81-3.86 9.03-6.34 13.4-2.33 4.18-4.42 8.47-6.54 12.8-0.83 1.67-1.67 3.33-2.5 5-0.41 0.83-0.83 1.65-1.25 2.5-0.83 1.66-1.66 3.31-2.5 4.96-4.4 8.7-8.48 17.5-11.8 26.6-0.99 1.9-0.99 1.9-3.99 2.9 2.08-6.76 4.72-13.1 7.69-19.6 0.44-0.97 0.89-1.95 1.35-2.95 10.7-23.2 22.7-45.9 36-67.7 0.51-0.83 1.01-1.67 1.54-2.53 0.44-0.72 0.88-1.45 1.34-2.19 1.1-2.08 1.83-3.68 2.07-6.03-1.88-2.46-3.72-4.56-5.88-6.75-0.62-0.65-1.24-1.3-1.88-1.96-5.68-5.88-11.6-11.5-17.6-17-0.69-0.63-1.37-1.26-2.08-1.92-0.61-0.55-1.22-1.1-1.84-1.68-1.77-1.77-3.22-3.64-4.68-5.68z" fill="#000002"/>
<path transform="translate(689,1332)" d="m0 0c0.99 0.33 1.98 0.66 3 1v101l-4-1c-0.02-13-0.04-26-0.05-39.1-0.01-6.05-0.01-12.1-0.03-18.1-0.01-5.83-0.01-11.7-0.01-17.5-0.01-2.23-0.01-4.46-0.02-6.68v-9.34c-0.01-0.93-0.01-1.86-0.01-2.82 0.01-6.36 0.01-6.36 1.12-7.47z" fill="#000002"/>
<path transform="translate(724,1176)" d="m0 0h3l1 92h-4v-92z" fill="#000002"/>
<path transform="translate(1174 1176)" d="m0 0c1.11 0.15 1.11 0.15 2.25 0.31-1.49 3.13-3.23 5.98-5.13 8.88-4.21 6.56-8.05 13.3-11.9 20.1h-2c-0.27 0.89-0.54 1.78-0.81 2.69-1.12 3.12-2.41 5.54-4.19 8.31-0.52 0.93-1.03 1.86-1.56 2.81-0.48 0.73-0.95 1.45-1.44 2.19h-2l-2 7h-4c-1-3-1-3-0.14-4.9 0.46-0.72 0.92-1.44 1.39-2.18 0.52-0.82 1.04-1.64 1.57-2.48 0.58-0.89 1.15-1.77 1.74-2.69l3.6-5.67c0.63-0.99 1.25-1.98 1.9-3 3.85-6.12 7.55-12.3 11.3-18.5 7.51-12.4 7.51-12.4 11.4-12.9z" fill="#000002"/>
<path transform="translate(771,1511)" d="m0 0c3.75 1.25 5.87 3.62 8 6.82 2 4.37 1.91 8.53 1 13.2-1.67 3.89-3.69 7.45-6 11h-2c-0.23 0.72-0.45 1.44-0.69 2.19-1.58 3.4-3.57 5.26-6.31 7.81-0.76 0.77-1.51 1.55-2.29 2.34-3.72 3.65-7.74 6.87-11.8 10.2-2.81 2.39-5.37 4.87-7.94 7.5-1.24 1.23-2.49 2.47-3.73 3.7l-4.02 3.99c-1.03 1.01-1.03 1.01-2.07 2.05-0.66 0.64-1.31 1.29-1.98 1.96-0.88 0.88-0.88 0.88-1.79 1.78-2.5 2.69-2.52 4.58-2.47 8.14 0.01 0.82 0.02 1.64 0.02 2.48 0.02 0.63 0.03 1.25 0.04 1.9h-4c-0.76-3.55-0.85-6.46 0-10 3.19-4.22 7-7.57 11-11 0.77-0.68 1.54-1.37 2.34-2.07 1.25-1.12 2.52-2.22 3.81-3.3 2.39-2.11 4.6-4.37 6.85-6.63 1.78-1.74 3.56-3.47 5.34-5.2 1.53-1.5 3.06-3.01 4.59-4.51 1.04-1.02 2.09-2.04 3.14-3.06 8.06-7.8 15.4-15.1 16.1-26.9-0.31-5.26-2.78-9.36-6.14-13.4l1-1z" fill="#000002"/>
<path transform="translate(879,1370)" d="m0 0 4 1v63l-5-1c-0.18-7.62-0.34-15.2-0.49-22.9-0.08-3.54-0.15-7.08-0.23-10.6-0.1-4.07-0.18-8.14-0.26-12.2-0.03-1.27-0.06-2.54-0.09-3.85-0.02-1.18-0.04-2.36-0.07-3.58-0.02-1.04-0.04-2.08-0.06-3.15 0.2-2.76 0.77-4.37 2.2-6.72z" fill="#000002"/>
<path transform="translate(880,1332)" d="m0 0h4l-1 4h-2c-0.15 0.55-0.29 1.09-0.45 1.65-1.61 5.42-3.83 9.62-7.07 14.2-2.05 2.93-3.76 6-5.48 9.12-0.42 0.76-0.85 1.51-1.29 2.29-1.97 3.54-3.92 7.07-5.71 10.7h-2c-0.27 0.97-0.54 1.94-0.81 2.94-0.39 1.01-0.79 2.02-1.19 3.06-1.49 0.49-1.49 0.49-3 1-0.16 1.08-0.16 1.08-0.32 2.17-0.75 3.13-1.94 5.34-3.62 8.08-0.52 0.87-1.05 1.74-1.59 2.64-1.47 2.11-1.47 2.11-3.47 3.11l-2-2h2c0.26-0.7 0.53-1.4 0.8-2.12 1.29-3.1 2.78-6 4.36-8.97 0.31-0.57 0.61-1.14 0.93-1.74 0.99-1.85 1.98-3.7 2.97-5.55 0.34-0.63 0.68-1.26 1.03-1.91 4.42-8.24 8.92-16.4 13.8-24.4 1.54-2.5 3.02-5.02 4.46-7.58 0.41-0.7 0.81-1.4 1.22-2.13 0.78-1.35 1.54-2.71 2.29-4.07 1.05-1.82 1.05-1.82 3.09-4.57z" fill="#000002"/>
<path transform="translate(842,1182)" d="m0 0 5 1c0.07 7.88 0.12 15.8 0.16 23.6 0.01 3.66 0.03 7.32 0.07 11 0.03 3.54 0.05 7.08 0.05 10.6 0.01 1.98 0.04 3.97 0.06 5.96 0 19 0 19-5.84 25.6-2.5 1.19-2.5 1.19-5.5 0.19 1.49-0.49 1.49-0.49 3-1 4.62-8.7 4.33-18.9 4.41-28.4 0.02-1.38 0.04-2.76 0.06-4.13 0.05-3.6 0.09-7.19 0.13-10.8 0.04-3.68 0.09-7.36 0.14-11 0.1-7.2 0.18-14.4 0.26-21.6l-2-1z" fill="#000002"/>
<path transform="translate(786,1332)" d="m0 0 4 1c-0.16 1-0.32 2-0.49 3.03-0.55 3.86-0.64 7.65-0.64 11.6v2.2c-0.01 2.38-0.01 4.76 0 7.14 0 1.68 0 3.35-0.01 5.03 0 3.51 0 7.02 0.01 10.5 0.01 4.45 0 8.91 0 13.4-0.01 3.46-0.01 6.93 0 10.4 0 1.64 0 3.28-0.01 4.92-0.01 11 0.38 21.9 1.14 32.8h-4v-102z" fill="#000002"/>
<path transform="translate(683,1511)" d="m0 0c7.14 3.12 11.3 9.7 14.3 16.6 3.9 12.7 3.84 31.1-0.78 43.7-2.71 4.94-6.42 8.86-10.5 12.7l-4-1c1.36-0.99 1.36-0.99 2.75-2 7-5.9 9.61-16 10.6-24.8 0.14-2.85 0.17-5.68 0.14-8.54-0.01-1-0.02-2-0.03-3.03-0.29-13.3-3.79-23.2-13.4-32.6l1-1z" fill="#000002"/>
<path transform="translate(1104,1177)" d="m0 0h2c1.61 2.28 1.61 2.28 3.53 5.49 0.34 0.58 0.69 1.15 1.04 1.74 1.13 1.88 2.25 3.76 3.37 5.65 0.77 1.28 1.54 2.57 2.31 3.85 1.54 2.56 3.08 5.13 4.61 7.69 2.8 4.68 5.62 9.36 8.45 14 0.43 0.7 0.85 1.41 1.29 2.14 2.24 3.7 4.61 7.1 7.4 10.4l3-2c0.49 1.98 0.49 1.98 1 4h3c-1.88 4.75-1.88 4.75-3 7-0.15 2.25-0.25 4.5-0.32 6.76-0.02 0.66-0.04 1.32-0.06 2.01-0.06 2.12-0.12 4.24-0.18 6.35-0.05 1.44-0.09 2.88-0.13 4.31-0.11 3.53-0.21 7.05-0.31 10.6h-1c-0.01-0.92-0.03-1.85-0.04-2.8-0.07-3.43-0.14-6.85-0.22-10.3-0.04-1.48-0.06-2.97-0.09-4.45-0.03-2.13-0.08-4.26-0.14-6.4-0.02-1.28-0.05-2.56-0.08-3.88-0.46-3.4-0.82-4.16-3.43-6.19-1.09-1.8-2.13-3.64-3.12-5.5-0.78-1.44-0.78-1.44-1.58-2.91-1.3-2.59-1.3-2.59-2.3-5.59l-2-1-3-6c-0.52-0.47-1.03-0.95-1.56-1.44-2.26-2.46-2.66-5.38-3.44-8.56h-2v-3h-2l-1-5h-2c-0.08-0.58-0.16-1.15-0.25-1.75-0.61-2.4-0.61-2.4-2.69-4.13-2.48-2.55-3.12-4.71-4.06-8.12l-1-3z" fill="#FCFDFF"/>
<path transform="translate(913,1185)" d="m0 0 2 4h2c0.51 1.27 1 2.54 1.5 3.81 0.42 1.06 0.42 1.06 0.84 2.15 0.66 2.04 0.66 2.04 0.66 5.04h2c0.31 0.85 0.63 1.69 0.95 2.56 2.88 7.67 2.88 7.67 6.36 15.1 1.69 3.38 1.69 3.38 1.69 6.38h2c1.49 5.94 1.49 5.94 3 12-4-1-4-1-5.15-2.57-0.31-0.67-0.61-1.35-0.92-2.04-0.36-0.77-0.71-1.53-1.08-2.32-0.36-0.83-0.73-1.67-1.11-2.52-0.58-1.28-0.58-1.28-1.18-2.59-1.24-2.73-2.46-5.47-3.68-8.21-0.84-1.83-1.67-3.66-2.5-5.5-8.79-19.4-8.79-19.4-8.38-24.2l1-1z" fill="#000002"/>
<path transform="translate(956,234)" d="m0 0c-2.52 2.52-4.83 3.16-8.19 4.38-5.47 2.04-5.47 2.04-10.6 4.74-2.46 1.45-4.42 2.39-7.07 3.32-3.93 1.39-7.42 3.3-11 5.37-2.64 1.51-5.35 2.85-8.08 4.19-7.1 3.49-14.1 7.17-21 11-0.79 0.43-1.57 0.87-2.38 1.32-1.49 0.82-2.97 1.65-4.46 2.48-1.41 0.79-2.84 1.57-4.26 2.34-7.82 4.26-15.4 8.99-22.9 13.7-1.34 0.83-1.34 0.83-2.71 1.68-0.79 0.5-1.57 1-2.38 1.51-0.64 0.3-1.28 0.61-1.93 0.93l-2-1c26.2-18.3 54.9-32.7 83.6-46.6 0.61-0.3 1.21-0.59 1.84-0.9 20.6-9.99 20.6-9.99 23.6-8.48z" fill="#000102"/>
<path transform="translate(795,326)" d="m0 0v3c-1.84 1.64-3.64 3.06-5.62 4.5-1.2 0.89-2.39 1.78-3.58 2.67-0.62 0.46-1.24 0.92-1.88 1.4-3.18 2.37-6.3 4.8-9.42 7.24-0.57 0.45-1.15 0.89-1.74 1.35-2.71 2.11-5.12 4.21-7.54 6.66-2.22 2.18-2.22 2.18-4.22 2.18-0.5 1.49-0.5 1.49-1 3-1.43 1.22-1.43 1.22-3.31 2.5-4.58 3.27-8.6 7.01-12.6 10.9-3.83 3.61-3.83 3.61-6.04 3.61-0.26 0.59-0.51 1.19-0.77 1.8-1.36 2.43-2.71 3.69-4.85 5.45-4.37 3.69-8.38 7.67-12.4 11.8l-4 4c-0.99-0.33-1.98-0.66-3-1 2.28-2.34 4.58-4.67 6.88-7 0.65-0.67 1.3-1.34 1.97-2.02 0.62-0.64 1.25-1.27 1.89-1.92 0.87-0.88 0.87-0.88 1.75-1.77 1.51-1.29 1.51-1.29 3.51-1.29v-2c1.33-1.34 1.33-1.34 3.25-2.94 3.66-3.11 7.22-6.3 10.8-9.56 7.08-6.51 14.3-12.8 21.7-18.8 2.48-2.02 4.94-4.05 7.39-6.1 7.42-6.18 14.8-12.3 22.9-17.6z" fill="#000002"/>
<path transform="translate(637,1176)" d="m0 0h2l1 92h-3c-1.01-30.7-0.89-61.3 0-92z" fill="#000002"/>
<path transform="translate(1403,1242)" d="m0 0c5.75-0.12 5.75-0.12 8 1 0.79 1.95 1.48 3.94 2.12 5.94 0.36 1.08 0.71 2.16 1.08 3.27 0.8 2.79 0.8 2.79 0.8 4.79l2 1c0.33 1.67 0.67 3.33 1 5l2 1v4h-6c-1.84-3.96-3.67-7.91-5.5-11.9-0.79-1.69-0.79-1.69-1.59-3.41-0.74-1.62-0.74-1.62-1.5-3.26-0.46-1-0.93-1.99-1.4-3.02-1.01-2.43-1.01-2.43-1.01-4.43z" fill="#050607"/>
<path transform="translate(807,1370)" d="m0 0c3.28 1.35 4.55 2.4 5.96 5.65 1.94 4.2 4.24 8.02 6.73 11.9 0.88 1.4 1.76 2.79 2.64 4.19 0.44 0.7 0.89 1.41 1.34 2.13 2.11 3.37 4.16 6.77 6.21 10.2 0.35 0.6 0.71 1.19 1.08 1.8 1.02 1.71 2.03 3.43 3.04 5.14 0.57 0.95 0.57 0.95 1.15 1.92 2.85 4.85 2.85 4.85 2.85 7.08 0.99 0.33 1.98 0.66 3 1-1.98 0.49-1.98 0.49-4 1-6.16-9.34-12-18.9-17.8-28.4-0.38-0.61-0.75-1.23-1.13-1.86-2.37-3.89-4.72-7.79-7.06-11.7-0.69-1.14-0.69-1.14-1.4-2.3-1.68-2.81-2.6-4.36-2.6-7.7z" fill="#000002"/>
<path transform="translate(967,1353)" d="m0 0c0.99 0.33 1.98 0.66 3 1 0.81 1.79 0.81 1.79 1.44 4.06 0.92 3.04 1.9 5.82 3.37 8.63 4.55 8.74 8.27 17.9 11.2 27.3h-4c-2.93-6.39-5.84-12.8-8.73-19.2-1.09-2.41-2.2-4.8-3.31-7.2l-1.65-3.66c-0.48-1.05-0.95-2.09-1.45-3.16-0.95-3.07-0.78-4.74 0.14-7.78z" fill="#000002"/>
<path transform="translate(642,1508)" d="m0 0 1 2c-0.89 1.77-0.89 1.77-2.25 3.81-0.92 1.4-1.83 2.79-2.75 4.19-0.52 0.76-1.03 1.53-1.57 2.31-7.22 13.6-5.75 33.8-2.48 48.3 2.12 6.89 5.67 12.7 10 18.4-0.5 0.99-0.5 0.99-1 2-11.4-11.9-14.5-27.3-14.4-43.3 0.39-12.6 3.31-26.9 12.1-36.6 0.42-0.37 0.84-0.73 1.28-1.11z" fill="#000002"/>
<path transform="translate(775,1184)" d="m0 0c6.6 2.33 9.43 5.02 13.2 10.9 3.13 8.62 2.59 17.6-1.05 25.9-1.61 2.9-3.38 4.44-6.2 6.16-0.87 0.6-1.73 1.2-2.62 1.81l-2.38 1.19c-0.99-0.33-1.98-0.66-3-1 0.53-0.27 1.06-0.54 1.61-0.81 6.57-3.65 9.02-7.61 11.1-14.7 0.83-8.33 0.11-15.2-4.63-22.3-2.23-2.3-4.56-4.27-7.12-6.19l1-1z" fill="#000002"/>
<path transform="translate(1245,1242)" d="m0 0h6c0.41 0.83 0.82 1.66 1.24 2.52 0.54 1.09 1.08 2.17 1.64 3.29 0.53 1.08 1.06 2.16 1.61 3.27 1.48 3 1.48 3 3.51 5.92 2.14 3.52 2.53 6.94 3 11h-5c-0.49-1.07-0.49-1.07-0.99-2.17-1.48-3.24-2.97-6.47-4.45-9.71-0.51-1.12-1.03-2.25-1.56-3.41-0.74-1.62-0.74-1.62-1.5-3.26-0.68-1.5-0.68-1.5-1.38-3.02-0.68-1.49-1.39-2.97-2.12-4.43z" fill="#08090A"/>
<path transform="translate(592,1511)" d="m0 0h2v2c0.99 0.33 1.98 0.66 3 1 3.85 4.29 4.62 7.76 4.39 13.3-0.66 4.49-2.04 8.78-4.39 12.7-0.99 0.33-1.98 0.66-3 1-0.29 0.58-0.58 1.15-0.88 1.75-1.51 3.03-3.7 4.88-6.12 7.25-1.78 1.82-3.56 3.63-5.34 5.45-1.53 1.55-3.06 3.1-4.59 4.64-1.05 1.07-2.1 2.14-3.14 3.21-1.52 1.55-3.05 3.1-4.59 4.65-0.9 0.92-1.81 1.84-2.74 2.79-2.51 2.18-4.45 3.27-7.6 4.26 3.21-3.23 6.45-6.42 9.71-9.6 2.46-2.41 4.91-4.83 7.36-7.25 1.28-1.26 2.57-2.52 3.86-3.78 13.1-12.3 13.1-12.3 18.2-29-0.3-5.11-2.33-8.92-6.14-12.4v-2z" fill="#000002"/>
<path transform="translate(850,1510)" d="m0 0c2.97 0.49 2.97 0.49 6 1-1.74 3.02-3.59 5.94-5.56 8.81-0.42 0.61-0.83 1.21-1.26 1.83-0.39 0.45-0.78 0.9-1.18 1.36h-2c-0.25 0.74-0.5 1.48-0.75 2.25-1.35 2.98-2.88 4.53-5.25 6.75l-2 3h-2l-1 4h-2v13h-3c-1.59-8.74-1.59-8.74 0.38-12.9 0.84-1.04 1.72-2.06 2.62-3.06 1.38-1.69 2.75-3.37 4.12-5.06 0.78-0.94 1.55-1.87 2.35-2.84 4.32-5.25 8.41-10.7 12.5-16.1l-2-2z" fill="#000002"/>
<path transform="translate(855,1553)" d="m0 0c4.57 2.11 7.68 4.45 10 9 1 5.59 1.36 11.2-1.18 16.4-2.95 3.69-5.11 4.89-9.82 5.57 0.42-0.56 0.84-1.11 1.28-1.69 3.76-5.23 5.82-8.8 5.72-15.3-1.19-5.18-3.41-9.04-7-13l1-1z" fill="#000002"/>
<path transform="translate(936,1242)" d="m0 0c3.32 0.57 4.82 1.44 7 4 1.03 2.13 1.03 2.13 1.94 4.56 0.33 0.88 0.67 1.76 1.01 2.66 0.52 1.38 0.52 1.38 1.05 2.78 1.08 2.66 2.17 5.31 3.27 7.97 0.73 2.03 0.73 2.03 0.73 4.03h-4c-1.84-3.96-3.67-7.91-5.5-11.9-0.79-1.69-0.79-1.69-1.59-3.41-0.74-1.62-0.74-1.62-1.5-3.26-0.46-1-0.93-1.99-1.4-3.02-1.01-2.43-1.01-2.43-1.01-4.43z" fill="#000002"/>
<path transform="translate(988,1409)" d="m0 0c4.8 0.74 4.8 0.74 6.62 3.06 1.33 2.82 2.44 5.67 3.49 8.6 1.73 4.55 3.84 8.93 5.89 13.3-2.35-0.24-2.35-0.24-5-1-1.37-1.79-1.37-1.79-2.44-4.19-0.4-0.89-0.81-1.77-1.22-2.69-0.44-1.03-0.89-2.06-1.34-3.12l-1.65-3.78c-1.47-3.39-2.92-6.8-4.35-10.2z" fill="#000002"/>
<path transform="translate(643,1347)" d="m0 0h3c1.34 2.69 1.11 4.73 1.09 7.73-0.01 1.2-0.02 2.4-0.03 3.64-0.01 1.31-0.03 2.61-0.04 3.96-0.01 0.99-0.01 0.99-0.02 2.01-0.04 3.51-0.08 7.03-0.13 10.5-0.05 3.63-0.08 7.25-0.1 10.9-0.02 2.79-0.06 5.58-0.1 8.38-0.03 1.98-0.03 3.96-0.04 5.94-0.21 11.3-0.21 11.3-4.63 15.9-2.25 0.88-2.25 0.88-4 1 0.35-0.48 0.7-0.97 1.06-1.47 0.45-0.67 0.91-1.34 1.38-2.03 0.68-0.97 0.68-0.97 1.37-1.97 3.21-6.82 2.4-15.5 2.51-22.9 0.02-1.16 0.04-2.33 0.06-3.53 0.06-3.69 0.12-7.39 0.18-11.1 0.05-2.52 0.09-5.03 0.13-7.55 0.11-6.15 0.21-12.3 0.31-18.4l-2-1z" fill="#000002"/>
<path transform="translate(766,1237)" d="m0 0c9.52 3.69 19.4 21.9 24 31-2.53-0.38-3.74-0.73-5.54-2.61-0.72-1.03-0.72-1.03-1.45-2.07-0.54-0.76-1.08-1.52-1.63-2.3-0.56-0.81-1.12-1.62-1.69-2.46-0.86-1.22-0.86-1.22-1.74-2.47-1.14-1.62-2.28-3.25-3.41-4.87-1.3-1.87-2.61-3.72-3.95-5.57-4.59-6.39-4.59-6.39-4.59-8.65z" fill="#000002"/>
<path transform="translate(642,24)" d="m0 0 2 1c-0.68 0.66-0.68 0.66-1.37 1.33-2.1 2.02-4.18 4.07-6.25 6.11-1.07 1.03-1.07 1.03-2.17 2.08-4.34 4.29-7.83 8.58-11 13.8-0.4 0.55-0.8 1.1-1.21 1.67h-2c-0.25 0.83-0.5 1.65-0.75 2.5-1.44 4.02-3.27 7.72-5.25 11.5l-2-1c4.42-14.9 17.9-29.6 30-39z" fill="#000002"/>
<path transform="translate(845,291)" d="m0 0 2 1c-5.29 3.94-10.6 7.79-16.2 11.2-5.67 3.52-10.9 7.53-16.2 11.7-3.77 2.91-6.96 4.89-11.7 6.09 4.65-5.16 10.2-8.84 15.9-12.8 1.02-0.71 2.04-1.41 3.1-2.14 2.98-2.04 5.97-4.08 8.96-6.11 0.8-0.54 1.59-1.08 2.41-1.64 1.96-1.32 3.93-2.62 5.9-3.92 1.07-0.71 2.14-1.41 3.24-2.13 0.81-0.43 1.62-0.87 2.45-1.31z" fill="#000002"/>
<path transform="translate(1136,1332)" d="m0 0h6v16h-6v-16z" fill="#000002"/>
<path transform="translate(479,1352)" d="m0 0c3.45 0.26 4.24 1.26 6.69 3.88 3.19 4.31 3.49 7.24 3.56 12.5 0.04 1.68 0.04 1.68 0.08 3.39-0.66 6.47-4.86 9.96-9.33 14.2-0.99-0.33-1.98-0.66-3-1 0.48-0.36 0.96-0.73 1.46-1.1 4.11-3.27 6.59-5.53 7.54-10.9 0.74-7.46-0.63-12.8-5.19-18.9-0.6-0.68-1.19-1.36-1.81-2.06z" fill="#000002"/>
<path transform="translate(467,1404)" d="m0 0c3.44 1.15 3.63 1.6 5.44 4.56 3.53 5.57 7.54 10.8 11.6 15.9 0.51 0.67 1.02 1.34 1.55 2.02 0.46 0.6 0.93 1.2 1.4 1.81 1.01 1.67 1.01 1.67 1.01 4.67h-2c-1.65-2.12-1.65-2.12-3.59-5.07-1.05-1.59-1.05-1.59-2.13-3.22-0.74-1.13-1.48-2.26-2.22-3.4-0.73-1.11-1.47-2.23-2.21-3.34-3.03-4.61-6.04-9.22-8.85-14z" fill="#000002"/>
<path transform="translate(1378,1177)" d="m0 0h3c0.99 2.64 1.98 5.28 3 8l-3 2c-0.99 1.48-0.99 1.48-2 3-3.08-4.4-3.08-4.4-4-7 1.25-3.44 1.25-3.44 3-6z" fill="#FCFDFF"/>
<path transform="translate(599,1185)" d="m0 0c0 4.18-2.22 6.13-5 9-1.7 1.49-3.43 2.92-5.17 4.35-2.67 2.4-4.89 5.13-7.15 7.92-1.77 1.83-3.35 2.74-5.68 3.73 2.13-3.87 4.53-6.77 7.67-9.86 0.89-0.89 1.78-1.78 2.7-2.69 0.93-0.91 1.86-1.82 2.82-2.76l2.85-2.82c2.31-2.3 4.63-4.59 6.96-6.87z" fill="#000002"/>
<path transform="translate(550,639)" d="m0 0h1c-0.38 5.36-1.32 8.95-3.88 13.6-2.32 4.88-3.63 10.2-5.12 15.4h-2c0.52-6.69 2.96-12.3 5.56-18.4 0.43-1.02 0.85-2.03 1.29-3.08 1.04-2.5 2.09-4.99 3.15-7.48z" fill="#000002"/>
<path transform="translate(807,1577)" d="m0 0h3c-1.21 3.72-2.51 7.38-4 11l6 5-2 1c-1.95-1-1.95-1-4.12-2.44-0.73-0.47-1.45-0.94-2.2-1.43-0.55-0.37-1.11-0.75-1.68-1.13 0.58-4.75 2.55-7.97 5-12z" fill="#000002"/>
<path transform="translate(1221,1177)" d="m0 0c3 1 3 1 4.19 2.88 0.81 2.12 0.81 2.12 0.81 5.12-2.5 2.19-2.5 2.19-5 4-0.1-0.64-0.21-1.28-0.31-1.94-0.23-0.68-0.46-1.36-0.69-2.06-0.99-0.33-1.98-0.66-3-1l4-7z" fill="#FCFDFF"/>
<path transform="translate(730,1503)" d="m0 0-1 3c-0.64 0.31-1.28 0.62-1.94 0.94-2.51 1.29-3.03 2.48-4.06 5.06 0.58 0.21 1.15 0.41 1.75 0.62 3.06 1.88 4.41 4.35 6.25 7.38-4.98-1.51-8.24-4.56-12-8 0.93-1.13 1.87-2.25 2.81-3.38 0.52-0.62 1.05-1.25 1.58-1.89 2.01-2.16 3.56-3.73 6.61-3.73z" fill="#000002"/>
<path transform="translate(1062,532)" d="m0 0c-2.71 1.44-5.42 2.88-8.12 4.31-1.15 0.61-1.15 0.61-2.31 1.23-4.16 2.21-8.35 4.36-12.6 6.46-0.72 0.41-1.44 0.83-2.19 1.25-1.81 0.75-1.81 0.75-4.81-0.25l11.2-5.88c1.06-0.55 2.13-1.11 3.22-1.68 1.03-0.53 2.05-1.07 3.11-1.62 1.41-0.74 1.41-0.74 2.85-1.49 0.85-0.44 1.7-0.88 2.57-1.33 0.71-0.41 1.42-0.82 2.15-1.24 1.85-0.76 1.85-0.76 4.85 0.24z" fill="#000102"/>
<path transform="translate(1170,1186)" d="m0 0h2c-1.61 4.5-3.9 8.38-6.38 12.4-0.38 0.64-0.77 1.28-1.17 1.94-2.38 3.95-4.87 7.8-7.45 11.6l-1-2c1.24-2.43 2.56-4.68 4-7 1.02-1.65 2.03-3.29 3.05-4.94 1.04-1.69 2.09-3.38 3.15-5.07 1.38-2.3 2.65-4.56 3.8-6.99z" fill="#FCFDFF"/>
<path transform="translate(608,1408)" d="m0 0 1 3c-0.58 0.56-1.15 1.11-1.75 1.69-2.26 2.32-4.26 4.75-6.25 7.31 0.66 0.78 1.32 1.57 2 2.38 2 2.62 2 2.62 2 4.62-2.84-1.27-5.14-2.45-7-5 0.33-4.11 2.85-6.34 5.56-9.25 0.83-0.89 1.66-1.78 2.51-2.7 0.63-0.68 1.27-1.35 1.93-2.05z" fill="#000002"/>
<path transform="translate(806,1497)" d="m0 0 4 1v12h-4v-13z" fill="#000002"/>
<path transform="translate(806,1252)" d="m0 0c-0.22 1.55-0.22 1.55-0.44 3.12 0.49 4.29 0.83 4.69 3.94 7.32 1.15 0.87 2.31 1.73 3.5 2.56-0.99 0.49-0.99 0.49-2 1-8.82-5.97-8.82-5.97-10-11 2.75-3 2.75-3 5-3z" fill="#000002"/>
<path transform="translate(573,1225)" d="m0 0c3.97 1.57 6.2 4.15 9 7.31 0.85 0.95 1.69 1.89 2.56 2.87 2.21 2.56 4.35 5.16 6.44 7.82l-1 2c-1.9-2.02-3.8-4.04-5.69-6.06-0.79-0.84-0.79-0.84-1.6-1.7-3.61-3.87-6.72-7.88-9.71-12.2z" fill="#000002"/>
<path transform="translate(1085,522)" d="m0 0c-3.52 2.31-7 3.83-10.9 5.23-2.01 0.75-3.93 1.62-5.87 2.52-3.19 1.25-3.19 1.25-6.19 0.25 3.21-1.49 6.43-2.98 9.65-4.46 1.9-0.87 3.79-1.75 5.67-2.64 4.35-2.01 4.35-2.01 7.68-0.9z" fill="#000102"/>
<path transform="translate(642,24)" d="m0 0 2 1-14 14-1-2c4.04-4.81 8.04-9.13 13-13z" fill="#5B5B5D"/>
<path transform="translate(564,1221)" d="m0 0 1 2c-3.68 4.53-7.41 8.39-12 12v-6h3c2.13-1.76 2.13-1.76 4.19-4 1.07-1.11 1.07-1.11 2.17-2.25 0.54-0.58 1.08-1.15 1.64-1.75z" fill="#070809"/>
<path transform="translate(1154,1212)" d="m0 0h2c-1.53 4.27-3.72 7.99-6.12 11.8-0.38 0.6-0.75 1.2-1.13 1.81-0.92 1.46-1.83 2.92-2.75 4.38l-1-2c1.87-4.33 4.37-8.1 7-12 0.69-1.32 1.38-2.65 2-4z" fill="#FCFDFF"/>
<path transform="translate(548,1585)" d="m0 0 1 2-1 2c-0.2 1.91-0.2 1.91-0.19 4-0.01 0.7-0.03 1.4-0.04 2.12 0.06 2.13 0.06 2.13 2.23 3.88l-5-1c-0.08-1.6-0.14-3.21-0.19-4.81-0.03-0.9-0.07-1.79-0.1-2.71 0.34-2.9 1.04-3.71 3.29-5.48z" fill="#000002"/>
<path transform="translate(1382,1185)" d="m0 0 2 1c0.62 2.56 0.62 2.56 1 5-0.99 0.49-0.99 0.49-2 1l-2-1-1 2-1-3c1.44-2.69 1.44-2.69 3-5z" fill="#000102"/>
<path transform="translate(1261,1177)" d="m0 0h6v5h-6v-5z" fill="#000002"/>
<path transform="translate(1273,1372)" d="m0 0h26v1h-26v-1z" fill="#FCFDFF"/>
<path transform="translate(733,1372)" d="m0 0h20v1h-20v-1z" fill="#FCFDFF"/>
<path transform="translate(161,1372)" d="m0 0h20v1h-20v-1z" fill="#FCFDFF"/>
<path transform="translate(1176,1178)" d="m0 0c0 3.58-1.09 5.05-3 8l-1-3c1.94-2.69 1.94-2.69 4-5z" fill="#FCFDFF"/>
<path transform="translate(1184,1258)" d="m0 0 1 2c-0.94 2.62-0.94 2.62-2 5-1-3-1-3-0.06-5.19 0.52-0.89 0.52-0.89 1.06-1.81z" fill="#FCFDFF"/>
<path transform="translate(1360,1218)" d="m0 0 1 3-2 2 1-5z" fill="#FCFDFF"/>
<path transform="translate(1199,1225)" d="m0 0 1 2c-0.99 1.48-0.99 1.48-2 3l1-5z" fill="#D2D3D4"/>
<path transform="translate(361,1372)" d="m0 0h5v1h-5v-1z" fill="#FCFDFF"/>
<path transform="translate(1262,1263)" d="m0 0 2 4-2-1v-3z" fill="#FCFDFF"/>
<path transform="translate(1189,1247)" d="m0 0 1 2-2 2 1-4z" fill="#FCFDFF"/>
<path transform="translate(1355,1230)" d="m0 0 1 2-2 2 1-4z" fill="#FCFDFF"/>
<path transform="translate(1370,1197)" d="m0 0 1 2-2 2 1-4z" fill="#FCFDFF"/>
<path transform="translate(826,1584)" d="m0 0 4 1z" fill="#FCFDFF"/>
<path transform="translate(819,1268)" d="m0 0 4 1z" fill="#000102"/>
<path transform="translate(820,1261)" d="m0 0 4 1z" fill="#FCFDFF"/>
<path transform="translate(187,645)" d="m0 0 4 1z" fill="#000202"/>
<path transform="translate(818,1596)" d="m0 0c3 1 3 1 3 1z" fill="#000102"/>
<path transform="translate(621,1434)" d="m0 0c3 1 3 1 3 1z" fill="#000102"/>
<path transform="translate(296,1266)" d="m0 0 2 2h-2v-2z" fill="#000202"/>
<path transform="translate(690,221)" d="m0 0c3 1 3 1 3 1z" fill="#000102"/>
<path transform="translate(672,216)" d="m0 0c3 1 3 1 3 1z" fill="#000002"/>
<path transform="translate(815,1595)" d="m0 0 2 1z" fill="#000202"/>
<path transform="translate(652,1595)" d="m0 0 2 1z" fill="#000202"/>
<path transform="translate(551,1519)" d="m0 0 2 1z" fill="#000102"/>
<path transform="translate(680,1511)" d="m0 0 2 1z" fill="#000002"/>
<path transform="translate(246,1433)" d="m0 0 2 1z" fill="#000202"/>
<path transform="translate(1270,1372)" d="m0 0 2 1z" fill="#FCFDFF"/>
<path transform="translate(289,1358)" d="m0 0 2 1z" fill="#000102"/>
<path transform="translate(815,1267)" d="m0 0 2 1z" fill="#000202"/>
<path transform="translate(813,1266)" d="m0 0 2 1z" fill="#000102"/>
<path transform="translate(255,660)" d="m0 0 2 1z" fill="#000202"/>
<path transform="translate(551,490)" d="m0 0 2 1z" fill="#000002"/>
<path transform="translate(481,439)" d="m0 0 2 1z" fill="#000002"/>
<path transform="translate(458,425)" d="m0 0 2 1z" fill="#000102"/>
<path transform="translate(456,424)" d="m0 0 2 1z" fill="#000102"/>
<path transform="translate(296,360)" d="m0 0 2 1z" fill="#000202"/>
<path transform="translate(257,352)" d="m0 0 2 1z" fill="#000202"/>
<path transform="translate(233,348)" d="m0 0 2 1z" fill="#000202"/>
<path transform="translate(669,215)" d="m0 0 2 1z" fill="#000002"/>
<path transform="translate(660,211)" d="m0 0 2 1z" fill="#000002"/>
</svg>
